<svg width="100" height="100" viewBox="0 0 100 100" fill="none" xmlns="http://www.w3.org/2000/svg">
<path d="M0 33.2C0 5.8598 3.90653 0 22.1333 0H77.8667C96.0935 0 100 5.8598 100 33.2V66.8C100 94.1402 96.0935 100 77.8667 100H22.1333C3.90653 100 0 94.1402 0 66.8V33.2Z" fill="#5F4BB6"/>
<path d="M38.432 21.472C38.432 23.136 38.192 24.912 37.712 26.8C37.232 28.656 36.56 30.512 35.696 32.368C34.832 34.192 33.76 35.952 32.48 37.648C31.232 39.312 29.808 40.784 28.208 42.064C26.608 43.312 24.848 44.32 22.928 45.088C21.04 45.856 19.024 46.24 16.88 46.24C16.432 46.24 15.984 46.208 15.536 46.144C15.088 46.112 14.64 46.064 14.192 46C15.056 41.584 15.904 37.28 16.736 33.088C17.056 31.328 17.392 29.504 17.744 27.616C18.096 25.696 18.432 23.808 18.752 21.952C19.072 20.096 19.376 18.32 19.664 16.624C19.984 14.928 20.24 13.392 20.432 12.016C21.808 11.76 23.2 11.52 24.608 11.296C26.016 11.072 27.456 10.96 28.928 10.96C30.656 10.96 32.112 11.232 33.296 11.776C34.512 12.32 35.488 13.072 36.224 14.032C36.992 14.992 37.552 16.112 37.904 17.392C38.256 18.672 38.432 20.032 38.432 21.472ZM27.104 17.728C26.752 19.616 26.384 21.424 26 23.152C25.616 24.88 25.232 26.624 24.848 28.384C24.464 30.144 24.08 31.984 23.696 33.904C23.312 35.824 22.944 37.92 22.592 40.192C23.36 39.68 24.096 38.992 24.8 38.128C25.536 37.232 26.224 36.208 26.864 35.056C27.504 33.904 28.08 32.688 28.592 31.408C29.136 30.128 29.6 28.88 29.984 27.664C30.368 26.448 30.656 25.312 30.848 24.256C31.072 23.2 31.184 22.288 31.184 21.52C31.184 20.336 30.848 19.408 30.176 18.736C29.536 18.064 28.512 17.728 27.104 17.728ZM64.4675 20.032C64.4675 22.656 64.1795 25.136 63.6035 27.472C63.0595 29.776 62.3235 31.904 61.3955 33.856C60.4675 35.776 59.3795 37.504 58.1315 39.04C56.9155 40.544 55.6355 41.84 54.2915 42.928C52.9475 43.984 51.5875 44.8 50.2115 45.376C48.8355 45.92 47.5235 46.192 46.2755 46.192C45.2195 46.192 44.2595 46 43.3955 45.616C42.5315 45.2 41.7795 44.608 41.1395 43.84C40.4995 43.04 39.9875 42.032 39.6035 40.816C39.2515 39.568 39.0755 38.08 39.0755 36.352C39.0755 34.56 39.2995 32.672 39.7475 30.688C40.1955 28.704 40.8035 26.736 41.5715 24.784C42.3395 22.832 43.2835 20.976 44.4035 19.216C45.5235 17.456 46.7555 15.904 48.0995 14.56C49.4435 13.184 50.8835 12.096 52.4195 11.296C53.9555 10.496 55.5555 10.096 57.2195 10.096C58.6595 10.096 59.8435 10.4 60.7715 11.008C61.7315 11.584 62.4675 12.352 62.9795 13.312C63.5235 14.24 63.9075 15.296 64.1315 16.48C64.3555 17.664 64.4675 18.848 64.4675 20.032ZM46.2275 35.104C46.2275 35.456 46.2915 35.824 46.4195 36.208C46.5475 36.592 46.7235 36.928 46.9475 37.216C47.1715 37.504 47.4435 37.76 47.7635 37.984C48.1155 38.176 48.4835 38.272 48.8675 38.272C50.3075 38.272 51.5875 37.776 52.7075 36.784C53.8275 35.792 54.7555 34.576 55.4915 33.136C56.2275 31.696 56.7875 30.16 57.1715 28.528C57.5875 26.896 57.7955 25.408 57.7955 24.064C57.7955 23.68 57.7635 23.264 57.6995 22.816C57.6675 22.368 57.5715 21.952 57.4115 21.568C57.2835 21.184 57.0595 20.864 56.7395 20.608C56.4515 20.32 56.0515 20.176 55.5395 20.176C54.5155 20.176 53.5715 20.432 52.7075 20.944C51.8435 21.456 51.0595 22.144 50.3555 23.008C49.6835 23.84 49.0915 24.8 48.5795 25.888C48.0675 26.944 47.6195 28.032 47.2355 29.152C46.8835 30.24 46.6275 31.312 46.4675 32.368C46.3075 33.424 46.2275 34.336 46.2275 35.104ZM80.9015 45.04C80.1015 45.168 79.2215 45.312 78.2615 45.472C77.3015 45.632 76.4375 45.776 75.6695 45.904C75.7975 44.848 75.9255 43.808 76.0535 42.784C76.1495 41.888 76.2295 40.992 76.2935 40.096C76.3895 39.2 76.4695 38.432 76.5335 37.792H72.3575L70.4375 44.704C69.7335 44.8 68.9015 44.912 67.9415 45.04C66.9815 45.136 66.0855 45.232 65.2535 45.328C64.2295 45.456 63.2215 45.584 62.2295 45.712C63.5095 41.456 64.7735 37.264 66.0215 33.136C66.5335 31.408 67.0615 29.6 67.6055 27.712C68.1815 25.824 68.7415 23.952 69.2855 22.096C69.8615 20.208 70.4055 18.4 70.9175 16.672C71.4295 14.944 71.8775 13.36 72.2615 11.92C74.4375 11.76 76.6455 11.568 78.8855 11.344C81.1575 11.12 83.3655 10.816 85.5095 10.432C85.4135 11.456 85.3015 12.736 85.1735 14.272C85.0775 15.776 84.9815 17.424 84.8855 19.216C84.7895 21.008 84.6935 22.88 84.5975 24.832C84.5015 26.784 84.4055 28.704 84.3095 30.592C84.1495 35.008 83.9735 39.696 83.7815 44.656C82.8215 44.816 81.8615 44.944 80.9015 45.04ZM73.5095 32.992C73.6375 32.992 73.8615 32.992 74.1815 32.992C74.5335 32.96 74.8855 32.944 75.2375 32.944C75.6215 32.912 75.9735 32.896 76.2935 32.896C76.6135 32.864 76.8375 32.832 76.9655 32.8C76.9655 32.608 76.9815 32.288 77.0135 31.84C77.0775 31.36 77.1255 30.832 77.1575 30.256C77.2215 29.648 77.2855 28.992 77.3495 28.288C77.4135 27.584 77.4775 26.896 77.5415 26.224C77.6695 24.592 77.8295 22.832 78.0215 20.944L78.3095 16.768L77.5895 16.816L76.4855 20.944L73.5095 32.992ZM14.192 87.048C15.056 82.792 15.888 78.632 16.688 74.568C16.976 72.84 17.296 71.048 17.648 69.192C18 67.304 18.32 65.448 18.608 63.624C18.928 61.768 19.216 59.992 19.472 58.296C19.76 56.568 19.984 55 20.144 53.592C21.968 53.016 23.936 52.6 26.048 52.344C28.16 52.056 30.256 51.912 32.336 51.912C33.584 51.912 34.608 52.056 35.408 52.344C36.24 52.632 36.88 53.048 37.328 53.592C37.808 54.104 38.144 54.712 38.336 55.416C38.528 56.12 38.624 56.904 38.624 57.768C38.624 59.048 38.4 60.312 37.952 61.56C37.504 62.776 36.896 63.944 36.128 65.064C35.392 66.152 34.528 67.16 33.536 68.088C32.576 68.984 31.536 69.72 30.416 70.296C30.992 71.576 31.6 72.984 32.24 74.52C32.912 76.024 33.536 77.464 34.112 78.84C34.752 80.44 35.408 82.04 36.08 83.64L28.64 86.232C28 84.024 27.424 81.944 26.912 79.992C26.688 79.192 26.464 78.376 26.24 77.544C26.016 76.68 25.808 75.88 25.616 75.144C25.424 74.376 25.264 73.704 25.136 73.128C25.008 72.552 24.928 72.104 24.896 71.784L24.272 71.976C24.08 73 23.84 74.248 23.552 75.72C23.296 77.192 23.056 78.616 22.832 79.992C22.544 81.624 22.256 83.304 21.968 85.032L14.192 87.048ZM25.472 66.216C26.08 66.152 26.816 65.896 27.68 65.448C28.576 65 29.424 64.472 30.224 63.864C31.024 63.224 31.712 62.568 32.288 61.896C32.864 61.224 33.152 60.632 33.152 60.12C33.152 59.768 33.04 59.496 32.816 59.304C32.592 59.08 32.272 58.92 31.856 58.824C31.472 58.696 31.04 58.616 30.56 58.584C30.08 58.552 29.584 58.536 29.072 58.536C28.72 58.536 28.352 58.552 27.968 58.584C27.616 58.584 27.296 58.584 27.008 58.584L25.472 66.216ZM57.6961 77.64C57.2481 79.464 56.6081 81.016 55.7761 82.296C54.9761 83.576 54.0161 84.632 52.8961 85.464C51.8081 86.296 50.6401 86.904 49.3921 87.288C48.1441 87.672 46.8961 87.864 45.6481 87.864C44.9121 87.864 44.1601 87.736 43.3921 87.48C42.6241 87.256 41.9361 86.904 41.3281 86.424C40.7201 85.944 40.2081 85.336 39.7921 84.6C39.4081 83.864 39.2161 83 39.2161 82.008C39.2161 81.88 39.2161 81.752 39.2161 81.624C39.2161 81.496 39.2321 81.368 39.2641 81.24C39.3921 79.928 39.6001 78.344 39.8881 76.488C40.1761 74.632 40.4801 72.696 40.8001 70.68C41.1201 68.664 41.4721 66.648 41.8561 64.632C42.2401 62.584 42.5761 60.728 42.8641 59.064C43.1841 57.4 43.4561 56.024 43.6801 54.936C43.9041 53.816 44.0481 53.128 44.1121 52.872C44.7841 52.808 45.5841 52.728 46.5121 52.632C47.4401 52.536 48.3041 52.456 49.1041 52.392C50.0961 52.296 51.0721 52.2 52.0321 52.104C51.2001 55.976 50.4641 59.48 49.8241 62.616C49.5361 63.96 49.2481 65.304 48.9601 66.648C48.7041 67.992 48.4481 69.224 48.1921 70.344C47.9681 71.464 47.7601 72.44 47.5681 73.272C47.4081 74.072 47.2641 74.728 47.1361 75.24C47.0401 75.752 46.9121 76.408 46.7521 77.208C46.6241 77.976 46.5601 78.68 46.5601 79.32C46.5601 79.832 46.6881 80.264 46.9441 80.616C47.2001 80.936 47.5201 81.096 47.9041 81.096C48.4481 81.096 48.8961 80.888 49.2481 80.472C49.6001 80.024 49.8881 79.496 50.1121 78.888C50.3681 78.28 50.5441 77.672 50.6401 77.064C50.7681 76.424 50.8801 75.928 50.9761 75.576C51.1681 74.648 51.3761 73.624 51.6001 72.504C51.8561 71.352 52.0961 70.168 52.3201 68.952C52.5761 67.704 52.8161 66.44 53.0401 65.16C53.2961 63.88 53.5361 62.632 53.7601 61.416C54.3041 58.6 54.8321 55.688 55.3441 52.68L62.6401 52.2C62.6401 52.2 62.5601 52.616 62.4001 53.448C62.2401 54.28 62.0321 55.384 61.7761 56.76C61.5201 58.136 61.2321 59.704 60.9121 61.464C60.6241 63.224 60.2881 65.064 59.9041 66.984C59.5201 68.872 59.1361 70.744 58.7521 72.6C58.4001 74.424 58.0481 76.104 57.6961 77.64ZM60.5255 87.24C61.4215 82.728 62.2855 78.328 63.1175 74.04C63.4375 72.248 63.7735 70.376 64.1255 68.424C64.5095 66.44 64.8615 64.504 65.1815 62.616C65.5015 60.696 65.7895 58.856 66.0455 57.096C66.3335 55.304 66.5575 53.672 66.7175 52.2C67.7095 52.136 68.6695 52.072 69.5975 52.008C70.4295 51.944 71.2775 51.896 72.1415 51.864C73.0055 51.8 73.7735 51.736 74.4455 51.672C74.8615 54.136 75.2295 56.488 75.5495 58.728C75.7095 59.688 75.8695 60.696 76.0295 61.752C76.2215 62.776 76.3975 63.768 76.5575 64.728C76.7175 65.688 76.8775 66.616 77.0375 67.512C77.1975 68.376 77.3575 69.144 77.5175 69.816C77.6455 69.144 77.7895 68.376 77.9495 67.512C78.1095 66.616 78.2855 65.688 78.4775 64.728C78.6695 63.736 78.8615 62.728 79.0535 61.704C79.2775 60.68 79.4855 59.688 79.6775 58.728C80.1575 56.488 80.6535 54.152 81.1655 51.72L87.0215 51C85.9335 55.8 84.9735 60.344 84.1415 64.632C83.7575 66.488 83.3735 68.36 82.9895 70.248C82.6375 72.136 82.3015 73.96 81.9815 75.72C81.6615 77.48 81.3895 79.112 81.1655 80.616C80.9415 82.088 80.7655 83.336 80.6375 84.36C80.5415 84.36 80.1575 84.44 79.4855 84.6C78.8455 84.728 78.0935 84.888 77.2295 85.08C76.3975 85.272 75.5495 85.48 74.6855 85.704C73.8535 85.896 73.2295 86.056 72.8135 86.184C72.5895 83.592 72.3495 81.128 72.0935 78.792C71.9975 77.8 71.8855 76.776 71.7575 75.72C71.6295 74.664 71.5015 73.656 71.3735 72.696C71.2775 71.736 71.1655 70.84 71.0375 70.008C70.9415 69.144 70.8455 68.424 70.7495 67.848C70.6535 68.424 70.5255 69.128 70.3655 69.96C70.2055 70.792 70.0455 71.688 69.8855 72.648C69.7255 73.576 69.5655 74.552 69.4055 75.576C69.2455 76.568 69.0695 77.544 68.8775 78.504C68.4615 80.776 68.0135 83.144 67.5335 85.608L60.5255 87.24Z" fill="#00C6C7"/>
<path d="M39.4304 21.472C39.4304 23.136 39.1904 24.912 38.7104 26.8C38.2304 28.656 37.5584 30.512 36.6944 32.368C35.8304 34.192 34.7584 35.952 33.4784 37.648C32.2304 39.312 30.8064 40.784 29.2064 42.064C27.6064 43.312 25.8464 44.32 23.9264 45.088C22.0384 45.856 20.0224 46.24 17.8784 46.24C17.4304 46.24 16.9824 46.208 16.5344 46.144C16.0864 46.112 15.6384 46.064 15.1904 46C16.0544 41.584 16.9024 37.28 17.7344 33.088C18.0544 31.328 18.3904 29.504 18.7424 27.616C19.0944 25.696 19.4304 23.808 19.7504 21.952C20.0704 20.096 20.3744 18.32 20.6624 16.624C20.9824 14.928 21.2384 13.392 21.4304 12.016C22.8064 11.76 24.1984 11.52 25.6064 11.296C27.0144 11.072 28.4544 10.96 29.9264 10.96C31.6544 10.96 33.1104 11.232 34.2944 11.776C35.5104 12.32 36.4864 13.072 37.2224 14.032C37.9904 14.992 38.5504 16.112 38.9024 17.392C39.2544 18.672 39.4304 20.032 39.4304 21.472ZM28.1024 17.728C27.7504 19.616 27.3824 21.424 26.9984 23.152C26.6144 24.88 26.2304 26.624 25.8464 28.384C25.4624 30.144 25.0784 31.984 24.6944 33.904C24.3104 35.824 23.9424 37.92 23.5904 40.192C24.3584 39.68 25.0944 38.992 25.7984 38.128C26.5344 37.232 27.2224 36.208 27.8624 35.056C28.5024 33.904 29.0784 32.688 29.5904 31.408C30.1344 30.128 30.5984 28.88 30.9824 27.664C31.3664 26.448 31.6544 25.312 31.8464 24.256C32.0704 23.2 32.1824 22.288 32.1824 21.52C32.1824 20.336 31.8464 19.408 31.1744 18.736C30.5344 18.064 29.5104 17.728 28.1024 17.728ZM65.4659 20.032C65.4659 22.656 65.1779 25.136 64.6019 27.472C64.0579 29.776 63.3219 31.904 62.3939 33.856C61.4659 35.776 60.3779 37.504 59.1299 39.04C57.9139 40.544 56.6339 41.84 55.2899 42.928C53.9459 43.984 52.5859 44.8 51.2099 45.376C49.8339 45.92 48.5219 46.192 47.2739 46.192C46.2179 46.192 45.2579 46 44.3939 45.616C43.5299 45.2 42.7779 44.608 42.1379 43.84C41.4979 43.04 40.9859 42.032 40.6019 40.816C40.2499 39.568 40.0739 38.08 40.0739 36.352C40.0739 34.56 40.2979 32.672 40.7459 30.688C41.1939 28.704 41.8019 26.736 42.5699 24.784C43.3379 22.832 44.2819 20.976 45.4019 19.216C46.5219 17.456 47.7539 15.904 49.0979 14.56C50.4419 13.184 51.8819 12.096 53.4179 11.296C54.9539 10.496 56.5539 10.096 58.2179 10.096C59.6579 10.096 60.8419 10.4 61.7699 11.008C62.7299 11.584 63.4659 12.352 63.9779 13.312C64.5219 14.24 64.9059 15.296 65.1299 16.48C65.3539 17.664 65.4659 18.848 65.4659 20.032ZM47.2259 35.104C47.2259 35.456 47.2899 35.824 47.4179 36.208C47.5459 36.592 47.7219 36.928 47.9459 37.216C48.1699 37.504 48.4419 37.76 48.7619 37.984C49.1139 38.176 49.4819 38.272 49.8659 38.272C51.3059 38.272 52.5859 37.776 53.7059 36.784C54.8259 35.792 55.7539 34.576 56.4899 33.136C57.2259 31.696 57.7859 30.16 58.1699 28.528C58.5859 26.896 58.7939 25.408 58.7939 24.064C58.7939 23.68 58.7619 23.264 58.6979 22.816C58.6659 22.368 58.5699 21.952 58.4099 21.568C58.2819 21.184 58.0579 20.864 57.7379 20.608C57.4499 20.32 57.0499 20.176 56.5379 20.176C55.5139 20.176 54.5699 20.432 53.7059 20.944C52.8419 21.456 52.0579 22.144 51.3539 23.008C50.6819 23.84 50.0899 24.8 49.5779 25.888C49.0659 26.944 48.6179 28.032 48.2339 29.152C47.8819 30.24 47.6259 31.312 47.4659 32.368C47.3059 33.424 47.2259 34.336 47.2259 35.104ZM81.8999 45.04C81.0999 45.168 80.2199 45.312 79.2599 45.472C78.2999 45.632 77.4359 45.776 76.6679 45.904C76.7959 44.848 76.9239 43.808 77.0519 42.784C77.1479 41.888 77.2279 40.992 77.2919 40.096C77.3879 39.2 77.4679 38.432 77.5319 37.792H73.3559L71.4359 44.704C70.7319 44.8 69.8999 44.912 68.9399 45.04C67.9799 45.136 67.0839 45.232 66.2519 45.328C65.2279 45.456 64.2199 45.584 63.2279 45.712C64.5079 41.456 65.7719 37.264 67.0199 33.136C67.5319 31.408 68.0599 29.6 68.6039 27.712C69.1799 25.824 69.7399 23.952 70.2839 22.096C70.8599 20.208 71.4039 18.4 71.9159 16.672C72.4279 14.944 72.8759 13.36 73.2599 11.92C75.4359 11.76 77.6439 11.568 79.8839 11.344C82.1559 11.12 84.3639 10.816 86.5079 10.432C86.4119 11.456 86.2999 12.736 86.1719 14.272C86.0759 15.776 85.9799 17.424 85.8839 19.216C85.7879 21.008 85.6919 22.88 85.5959 24.832C85.4999 26.784 85.4039 28.704 85.3079 30.592C85.1479 35.008 84.9719 39.696 84.7799 44.656C83.8199 44.816 82.8599 44.944 81.8999 45.04ZM74.5079 32.992C74.6359 32.992 74.8599 32.992 75.1799 32.992C75.5319 32.96 75.8839 32.944 76.2359 32.944C76.6199 32.912 76.9719 32.896 77.2919 32.896C77.6119 32.864 77.8359 32.832 77.9639 32.8C77.9639 32.608 77.9799 32.288 78.0119 31.84C78.0759 31.36 78.1239 30.832 78.1559 30.256C78.2199 29.648 78.2839 28.992 78.3479 28.288C78.4119 27.584 78.4759 26.896 78.5399 26.224C78.6679 24.592 78.8279 22.832 79.0199 20.944L79.3079 16.768L78.5879 16.816L77.4839 20.944L74.5079 32.992ZM16.1982 87.048C17.0622 82.792 17.8942 78.632 18.6942 74.568C18.9822 72.84 19.3022 71.048 19.6542 69.192C20.0062 67.304 20.3262 65.448 20.6142 63.624C20.9342 61.768 21.2222 59.992 21.4782 58.296C21.7662 56.568 21.9902 55 22.1502 53.592C23.9742 53.016 25.9422 52.6 28.0542 52.344C30.1662 52.056 32.2622 51.912 34.3422 51.912C35.5903 51.912 36.6142 52.056 37.4142 52.344C38.2462 52.632 38.8863 53.048 39.3342 53.592C39.8143 54.104 40.1503 54.712 40.3422 55.416C40.5342 56.12 40.6302 56.904 40.6302 57.768C40.6302 59.048 40.4062 60.312 39.9582 61.56C39.5102 62.776 38.9022 63.944 38.1342 65.064C37.3982 66.152 36.5342 67.16 35.5422 68.088C34.5822 68.984 33.5422 69.72 32.4222 70.296C32.9982 71.576 33.6062 72.984 34.2462 74.52C34.9182 76.024 35.5422 77.464 36.1182 78.84C36.7582 80.44 37.4142 82.04 38.0862 83.64L30.6462 86.232C30.0062 84.024 29.4302 81.944 28.9182 79.992C28.6942 79.192 28.4702 78.376 28.2462 77.544C28.0222 76.68 27.8142 75.88 27.6222 75.144C27.4302 74.376 27.2702 73.704 27.1422 73.128C27.0142 72.552 26.9342 72.104 26.9022 71.784L26.2782 71.976C26.0862 73 25.8462 74.248 25.5582 75.72C25.3022 77.192 25.0622 78.616 24.8382 79.992C24.5502 81.624 24.2622 83.304 23.9742 85.032L16.1982 87.048ZM27.4782 66.216C28.0862 66.152 28.8222 65.896 29.6862 65.448C30.5822 65 31.4302 64.472 32.2302 63.864C33.0302 63.224 33.7182 62.568 34.2942 61.896C34.8702 61.224 35.1582 60.632 35.1582 60.12C35.1582 59.768 35.0462 59.496 34.8222 59.304C34.5982 59.08 34.2782 58.92 33.8622 58.824C33.4782 58.696 33.0462 58.616 32.5662 58.584C32.0862 58.552 31.5902 58.536 31.0782 58.536C30.7262 58.536 30.3582 58.552 29.9742 58.584C29.6222 58.584 29.3022 58.584 29.0142 58.584L27.4782 66.216ZM59.7024 77.64C59.2544 79.464 58.6144 81.016 57.7824 82.296C56.9824 83.576 56.0224 84.632 54.9024 85.464C53.8144 86.296 52.6464 86.904 51.3984 87.288C50.1504 87.672 48.9024 87.864 47.6544 87.864C46.9184 87.864 46.1664 87.736 45.3984 87.48C44.6304 87.256 43.9424 86.904 43.3344 86.424C42.7264 85.944 42.2144 85.336 41.7984 84.6C41.4144 83.864 41.2224 83 41.2224 82.008C41.2224 81.88 41.2224 81.752 41.2224 81.624C41.2224 81.496 41.2384 81.368 41.2704 81.24C41.3984 79.928 41.6064 78.344 41.8944 76.488C42.1824 74.632 42.4864 72.696 42.8064 70.68C43.1264 68.664 43.4784 66.648 43.8624 64.632C44.2464 62.584 44.5824 60.728 44.8704 59.064C45.1904 57.4 45.4624 56.024 45.6864 54.936C45.9104 53.816 46.0544 53.128 46.1184 52.872C46.7904 52.808 47.5904 52.728 48.5184 52.632C49.4464 52.536 50.3104 52.456 51.1104 52.392C52.1024 52.296 53.0784 52.2 54.0384 52.104C53.2064 55.976 52.4704 59.48 51.8304 62.616C51.5424 63.96 51.2544 65.304 50.9664 66.648C50.7104 67.992 50.4544 69.224 50.1984 70.344C49.9744 71.464 49.7664 72.44 49.5744 73.272C49.4144 74.072 49.2704 74.728 49.1424 75.24C49.0464 75.752 48.9184 76.408 48.7584 77.208C48.6304 77.976 48.5664 78.68 48.5664 79.32C48.5664 79.832 48.6944 80.264 48.9504 80.616C49.2064 80.936 49.5264 81.096 49.9104 81.096C50.4544 81.096 50.9024 80.888 51.2544 80.472C51.6064 80.024 51.8944 79.496 52.1184 78.888C52.3744 78.28 52.5504 77.672 52.6464 77.064C52.7744 76.424 52.8864 75.928 52.9824 75.576C53.1744 74.648 53.3824 73.624 53.6064 72.504C53.8624 71.352 54.1024 70.168 54.3264 68.952C54.5824 67.704 54.8224 66.44 55.0464 65.16C55.3024 63.88 55.5424 62.632 55.7664 61.416C56.3104 58.6 56.8384 55.688 57.3504 52.68L64.6464 52.2C64.6464 52.2 64.5664 52.616 64.4064 53.448C64.2464 54.28 64.0384 55.384 63.7824 56.76C63.5264 58.136 63.2384 59.704 62.9184 61.464C62.6304 63.224 62.2944 65.064 61.9104 66.984C61.5264 68.872 61.1424 70.744 60.7584 72.6C60.4064 74.424 60.0544 76.104 59.7024 77.64ZM62.5317 87.24C63.4277 82.728 64.2917 78.328 65.1237 74.04C65.4437 72.248 65.7797 70.376 66.1317 68.424C66.5157 66.44 66.8677 64.504 67.1877 62.616C67.5077 60.696 67.7957 58.856 68.0517 57.096C68.3397 55.304 68.5637 53.672 68.7237 52.2C69.7157 52.136 70.6757 52.072 71.6037 52.008C72.4357 51.944 73.2837 51.896 74.1477 51.864C75.0117 51.8 75.7797 51.736 76.4517 51.672C76.8677 54.136 77.2357 56.488 77.5557 58.728C77.7157 59.688 77.8757 60.696 78.0357 61.752C78.2277 62.776 78.4037 63.768 78.5637 64.728C78.7237 65.688 78.8837 66.616 79.0437 67.512C79.2037 68.376 79.3637 69.144 79.5237 69.816C79.6517 69.144 79.7957 68.376 79.9557 67.512C80.1157 66.616 80.2917 65.688 80.4837 64.728C80.6757 63.736 80.8677 62.728 81.0597 61.704C81.2837 60.68 81.4917 59.688 81.6837 58.728C82.1637 56.488 82.6597 54.152 83.1717 51.72L89.0277 51C87.9397 55.8 86.9797 60.344 86.1477 64.632C85.7637 66.488 85.3797 68.36 84.9957 70.248C84.6437 72.136 84.3077 73.96 83.9877 75.72C83.6677 77.48 83.3957 79.112 83.1717 80.616C82.9477 82.088 82.7717 83.336 82.6437 84.36C82.5477 84.36 82.1637 84.44 81.4917 84.6C80.8517 84.728 80.0997 84.888 79.2357 85.08C78.4037 85.272 77.5557 85.48 76.6917 85.704C75.8597 85.896 75.2357 86.056 74.8197 86.184C74.5957 83.592 74.3557 81.128 74.0997 78.792C74.0037 77.8 73.8917 76.776 73.7637 75.72C73.6357 74.664 73.5077 73.656 73.3797 72.696C73.2837 71.736 73.1717 70.84 73.0437 70.008C72.9477 69.144 72.8517 68.424 72.7557 67.848C72.6597 68.424 72.5317 69.128 72.3717 69.96C72.2117 70.792 72.0517 71.688 71.8917 72.648C71.7317 73.576 71.5717 74.552 71.4117 75.576C71.2517 76.568 71.0757 77.544 70.8837 78.504C70.4677 80.776 70.0197 83.144 69.5397 85.608L62.5317 87.24Z" fill="white"/>
</svg>
