<svg width="256" height="256" viewBox="0 0 256 256" fill="none" xmlns="http://www.w3.org/2000/svg">
<rect width="256" height="256" fill="#5F4BB6"/>
<path d="M105.9 69.9C105.9 73.3667 105.4 77.0667 104.4 81C103.4 84.8667 102 88.7333 100.2 92.6C98.4 96.4 96.1667 100.067 93.5 103.6C90.9 107.067 87.9333 110.133 84.6 112.8C81.2667 115.4 77.6 117.5 73.6 119.1C69.6667 120.7 65.4667 121.5 61 121.5C60.0667 121.5 59.1333 121.433 58.2 121.3C57.2667 121.233 56.3333 121.133 55.4 121C57.2 111.8 58.9667 102.833 60.7 94.1C61.3667 90.4333 62.0667 86.6333 62.8 82.7C63.5333 78.7 64.2333 74.7667 64.9 70.9C65.5667 67.0333 66.2 63.3333 66.8 59.8C67.4667 56.2667 68 53.0667 68.4 50.2C71.2667 49.6667 74.1667 49.1667 77.1 48.7C80.0333 48.2333 83.0333 48 86.1 48C89.7 48 92.7333 48.5667 95.2 49.7C97.7333 50.8333 99.7667 52.4 101.3 54.4C102.9 56.4 104.067 58.7333 104.8 61.4C105.533 64.0667 105.9 66.9 105.9 69.9ZM82.3 62.1C81.5667 66.0333 80.8 69.8 80 73.4C79.2 77 78.4 80.6333 77.6 84.3C76.8 87.9667 76 91.8 75.2 95.8C74.4 99.8 73.6333 104.167 72.9 108.9C74.5 107.833 76.0333 106.4 77.5 104.6C79.0333 102.733 80.4667 100.6 81.8 98.2C83.1333 95.8 84.3333 93.2667 85.4 90.6C86.5333 87.9333 87.5 85.3333 88.3 82.8C89.1 80.2667 89.7 77.9 90.1 75.7C90.5667 73.5 90.8 71.6 90.8 70C90.8 67.5333 90.1 65.6 88.7 64.2C87.3667 62.8 85.2333 62.1 82.3 62.1ZM160.141 66.9C160.141 72.3667 159.541 77.5333 158.341 82.4C157.207 87.2 155.674 91.6333 153.741 95.7C151.807 99.7 149.541 103.3 146.941 106.5C144.407 109.633 141.741 112.333 138.941 114.6C136.141 116.8 133.307 118.5 130.441 119.7C127.574 120.833 124.841 121.4 122.241 121.4C120.041 121.4 118.041 121 116.241 120.2C114.441 119.333 112.874 118.1 111.541 116.5C110.207 114.833 109.141 112.733 108.341 110.2C107.607 107.6 107.241 104.5 107.241 100.9C107.241 97.1667 107.707 93.2333 108.641 89.1C109.574 84.9667 110.841 80.8667 112.441 76.8C114.041 72.7333 116.007 68.8667 118.341 65.2C120.674 61.5333 123.241 58.3 126.041 55.5C128.841 52.6333 131.841 50.3667 135.041 48.7C138.241 47.0333 141.574 46.2 145.041 46.2C148.041 46.2 150.507 46.8333 152.441 48.1C154.441 49.3 155.974 50.9 157.041 52.9C158.174 54.8333 158.974 57.0333 159.441 59.5C159.907 61.9667 160.141 64.4333 160.141 66.9ZM122.141 98.3C122.141 99.0333 122.274 99.8 122.541 100.6C122.807 101.4 123.174 102.1 123.641 102.7C124.107 103.3 124.674 103.833 125.341 104.3C126.074 104.7 126.841 104.9 127.641 104.9C130.641 104.9 133.307 103.867 135.641 101.8C137.974 99.7333 139.907 97.2 141.441 94.2C142.974 91.2 144.141 88 144.941 84.6C145.807 81.2 146.241 78.1 146.241 75.3C146.241 74.5 146.174 73.6333 146.041 72.7C145.974 71.7667 145.774 70.9 145.441 70.1C145.174 69.3 144.707 68.6333 144.041 68.1C143.441 67.5 142.607 67.2 141.541 67.2C139.407 67.2 137.441 67.7333 135.641 68.8C133.841 69.8667 132.207 71.3 130.741 73.1C129.341 74.8333 128.107 76.8333 127.041 79.1C125.974 81.3 125.041 83.5667 124.241 85.9C123.507 88.1667 122.974 90.4 122.641 92.6C122.307 94.8 122.141 96.7 122.141 98.3ZM194.378 119C192.711 119.267 190.878 119.567 188.878 119.9C186.878 120.233 185.078 120.533 183.478 120.8C183.745 118.6 184.011 116.433 184.278 114.3C184.478 112.433 184.645 110.567 184.778 108.7C184.978 106.833 185.145 105.233 185.278 103.9H176.578L172.578 118.3C171.111 118.5 169.378 118.733 167.378 119C165.378 119.2 163.511 119.4 161.778 119.6C159.645 119.867 157.545 120.133 155.478 120.4C158.145 111.533 160.778 102.8 163.378 94.2C164.445 90.6 165.545 86.8333 166.678 82.9C167.878 78.9667 169.045 75.0667 170.178 71.2C171.378 67.2667 172.511 63.5 173.578 59.9C174.645 56.3 175.578 53 176.378 50C180.911 49.6667 185.511 49.2667 190.178 48.8C194.911 48.3333 199.511 47.7 203.978 46.9C203.778 49.0333 203.545 51.7 203.278 54.9C203.078 58.0333 202.878 61.4667 202.678 65.2C202.478 68.9333 202.278 72.8333 202.078 76.9C201.878 80.9667 201.678 84.9667 201.478 88.9C201.145 98.1 200.778 107.867 200.378 118.2C198.378 118.533 196.378 118.8 194.378 119ZM178.978 93.9C179.245 93.9 179.711 93.9 180.378 93.9C181.111 93.8333 181.845 93.8 182.578 93.8C183.378 93.7333 184.111 93.7 184.778 93.7C185.445 93.6333 185.911 93.5667 186.178 93.5C186.178 93.1 186.211 92.4333 186.278 91.5C186.411 90.5 186.511 89.4 186.578 88.2C186.711 86.9333 186.845 85.5667 186.978 84.1C187.111 82.6333 187.245 81.2 187.378 79.8C187.645 76.4 187.978 72.7333 188.378 68.8L188.978 60.1L187.478 60.2L185.178 68.8L178.978 93.9ZM55.4 206.1C57.2 197.233 58.9333 188.567 60.6 180.1C61.2 176.5 61.8667 172.767 62.6 168.9C63.3333 164.967 64 161.1 64.6 157.3C65.2667 153.433 65.8667 149.733 66.4 146.2C67 142.6 67.4667 139.333 67.8 136.4C71.6 135.2 75.7 134.333 80.1 133.8C84.5 133.2 88.8667 132.9 93.2 132.9C95.8 132.9 97.9333 133.2 99.6 133.8C101.333 134.4 102.667 135.267 103.6 136.4C104.6 137.467 105.3 138.733 105.7 140.2C106.1 141.667 106.3 143.3 106.3 145.1C106.3 147.767 105.833 150.4 104.9 153C103.967 155.533 102.7 157.967 101.1 160.3C99.5667 162.567 97.7667 164.667 95.7 166.6C93.7 168.467 91.5333 170 89.2 171.2C90.4 173.867 91.6667 176.8 93 180C94.4 183.133 95.7 186.133 96.9 189C98.2333 192.333 99.6 195.667 101 199L85.5 204.4C84.1667 199.8 82.9667 195.467 81.9 191.4C81.4333 189.733 80.9667 188.033 80.5 186.3C80.0333 184.5 79.6 182.833 79.2 181.3C78.8 179.7 78.4667 178.3 78.2 177.1C77.9333 175.9 77.7667 174.967 77.7 174.3L76.4 174.7C76 176.833 75.5 179.433 74.9 182.5C74.3667 185.567 73.8667 188.533 73.4 191.4C72.8 194.8 72.2 198.3 71.6 201.9L55.4 206.1ZM78.9 162.7C80.1667 162.567 81.7 162.033 83.5 161.1C85.3667 160.167 87.1333 159.067 88.8 157.8C90.4667 156.467 91.9 155.1 93.1 153.7C94.3 152.3 94.9 151.067 94.9 150C94.9 149.267 94.6667 148.7 94.2 148.3C93.7333 147.833 93.0667 147.5 92.2 147.3C91.4 147.033 90.5 146.867 89.5 146.8C88.5 146.733 87.4667 146.7 86.4 146.7C85.6667 146.7 84.9 146.733 84.1 146.8C83.3667 146.8 82.7 146.8 82.1 146.8L78.9 162.7ZM146.034 186.5C145.1 190.3 143.767 193.533 142.034 196.2C140.367 198.867 138.367 201.067 136.034 202.8C133.767 204.533 131.334 205.8 128.734 206.6C126.134 207.4 123.534 207.8 120.934 207.8C119.4 207.8 117.834 207.533 116.234 207C114.634 206.533 113.2 205.8 111.934 204.8C110.667 203.8 109.6 202.533 108.734 201C107.934 199.467 107.534 197.667 107.534 195.6C107.534 195.333 107.534 195.067 107.534 194.8C107.534 194.533 107.567 194.267 107.634 194C107.9 191.267 108.334 187.967 108.934 184.1C109.534 180.233 110.167 176.2 110.834 172C111.5 167.8 112.234 163.6 113.034 159.4C113.834 155.133 114.534 151.267 115.134 147.8C115.8 144.333 116.367 141.467 116.834 139.2C117.3 136.867 117.6 135.433 117.734 134.9C119.134 134.767 120.8 134.6 122.734 134.4C124.667 134.2 126.467 134.033 128.134 133.9C130.2 133.7 132.234 133.5 134.234 133.3C132.5 141.367 130.967 148.667 129.634 155.2C129.034 158 128.434 160.8 127.834 163.6C127.3 166.4 126.767 168.967 126.234 171.3C125.767 173.633 125.334 175.667 124.934 177.4C124.6 179.067 124.3 180.433 124.034 181.5C123.834 182.567 123.567 183.933 123.234 185.6C122.967 187.2 122.834 188.667 122.834 190C122.834 191.067 123.1 191.967 123.634 192.7C124.167 193.367 124.834 193.7 125.634 193.7C126.767 193.7 127.7 193.267 128.434 192.4C129.167 191.467 129.767 190.367 130.234 189.1C130.767 187.833 131.134 186.567 131.334 185.3C131.6 183.967 131.834 182.933 132.034 182.2C132.434 180.267 132.867 178.133 133.334 175.8C133.867 173.4 134.367 170.933 134.834 168.4C135.367 165.8 135.867 163.167 136.334 160.5C136.867 157.833 137.367 155.233 137.834 152.7C138.967 146.833 140.067 140.767 141.134 134.5L156.334 133.5C156.334 133.5 156.167 134.367 155.834 136.1C155.5 137.833 155.067 140.133 154.534 143C154 145.867 153.4 149.133 152.734 152.8C152.134 156.467 151.434 160.3 150.634 164.3C149.834 168.233 149.034 172.133 148.234 176C147.5 179.8 146.767 183.3 146.034 186.5ZM151.928 206.5C153.795 197.1 155.595 187.933 157.328 179C157.995 175.267 158.695 171.367 159.428 167.3C160.228 163.167 160.961 159.133 161.628 155.2C162.295 151.2 162.895 147.367 163.428 143.7C164.028 139.967 164.495 136.567 164.828 133.5C166.895 133.367 168.895 133.233 170.828 133.1C172.561 132.967 174.328 132.867 176.128 132.8C177.928 132.667 179.528 132.533 180.928 132.4C181.795 137.533 182.561 142.433 183.228 147.1C183.561 149.1 183.895 151.2 184.228 153.4C184.628 155.533 184.995 157.6 185.328 159.6C185.661 161.6 185.995 163.533 186.328 165.4C186.661 167.2 186.995 168.8 187.328 170.2C187.595 168.8 187.895 167.2 188.228 165.4C188.561 163.533 188.928 161.6 189.328 159.6C189.728 157.533 190.128 155.433 190.528 153.3C190.995 151.167 191.428 149.1 191.828 147.1C192.828 142.433 193.861 137.567 194.928 132.5L207.128 131C204.861 141 202.861 150.467 201.128 159.4C200.328 163.267 199.528 167.167 198.728 171.1C197.995 175.033 197.295 178.833 196.628 182.5C195.961 186.167 195.395 189.567 194.928 192.7C194.461 195.767 194.095 198.367 193.828 200.5C193.628 200.5 192.828 200.667 191.428 201C190.095 201.267 188.528 201.6 186.728 202C184.995 202.4 183.228 202.833 181.428 203.3C179.695 203.7 178.395 204.033 177.528 204.3C177.061 198.9 176.561 193.767 176.028 188.9C175.828 186.833 175.595 184.7 175.328 182.5C175.061 180.3 174.795 178.2 174.528 176.2C174.328 174.2 174.095 172.333 173.828 170.6C173.628 168.8 173.428 167.3 173.228 166.1C173.028 167.3 172.761 168.767 172.428 170.5C172.095 172.233 171.761 174.1 171.428 176.1C171.095 178.033 170.761 180.067 170.428 182.2C170.095 184.267 169.728 186.3 169.328 188.3C168.461 193.033 167.528 197.967 166.528 203.1L151.928 206.5Z" fill="#00C6C7"/>
<path d="M100.98 69.9C100.98 73.3667 100.48 77.0667 99.4801 81C98.4801 84.8667 97.0801 88.7333 95.2801 92.6C93.4801 96.4 91.2467 100.067 88.5801 103.6C85.9801 107.067 83.0134 110.133 79.6801 112.8C76.3467 115.4 72.6801 117.5 68.6801 119.1C64.7467 120.7 60.5467 121.5 56.0801 121.5C55.1467 121.5 54.2134 121.433 53.2801 121.3C52.3467 121.233 51.4134 121.133 50.4801 121C52.2801 111.8 54.0467 102.833 55.7801 94.1C56.4467 90.4333 57.1467 86.6333 57.8801 82.7C58.6134 78.7 59.3134 74.7667 59.9801 70.9C60.6467 67.0333 61.2801 63.3333 61.8801 59.8C62.5467 56.2667 63.0801 53.0667 63.4801 50.2C66.3467 49.6667 69.2467 49.1667 72.1801 48.7C75.1134 48.2333 78.1134 48 81.1801 48C84.7801 48 87.8134 48.5667 90.2801 49.7C92.8134 50.8333 94.8467 52.4 96.3801 54.4C97.9801 56.4 99.1467 58.7333 99.8801 61.4C100.613 64.0667 100.98 66.9 100.98 69.9ZM77.3801 62.1C76.6467 66.0333 75.8801 69.8 75.0801 73.4C74.2801 77 73.4801 80.6333 72.6801 84.3C71.8801 87.9667 71.0801 91.8 70.2801 95.8C69.4801 99.8 68.7134 104.167 67.9801 108.9C69.5801 107.833 71.1134 106.4 72.5801 104.6C74.1134 102.733 75.5467 100.6 76.8801 98.2C78.2134 95.8 79.4134 93.2667 80.4801 90.6C81.6134 87.9333 82.5801 85.3333 83.3801 82.8C84.1801 80.2667 84.7801 77.9 85.1801 75.7C85.6467 73.5 85.8801 71.6 85.8801 70C85.8801 67.5333 85.1801 65.6 83.7801 64.2C82.4467 62.8 80.3134 62.1 77.3801 62.1ZM155.221 66.9C155.221 72.3667 154.621 77.5333 153.421 82.4C152.287 87.2 150.754 91.6333 148.821 95.7C146.887 99.7 144.621 103.3 142.021 106.5C139.487 109.633 136.821 112.333 134.021 114.6C131.221 116.8 128.387 118.5 125.521 119.7C122.654 120.833 119.921 121.4 117.321 121.4C115.121 121.4 113.121 121 111.321 120.2C109.521 119.333 107.954 118.1 106.621 116.5C105.287 114.833 104.221 112.733 103.421 110.2C102.687 107.6 102.321 104.5 102.321 100.9C102.321 97.1667 102.787 93.2333 103.721 89.1C104.654 84.9667 105.921 80.8667 107.521 76.8C109.121 72.7333 111.087 68.8667 113.421 65.2C115.754 61.5333 118.321 58.3 121.121 55.5C123.921 52.6333 126.921 50.3667 130.121 48.7C133.321 47.0333 136.654 46.2 140.121 46.2C143.121 46.2 145.587 46.8333 147.521 48.1C149.521 49.3 151.054 50.9 152.121 52.9C153.254 54.8333 154.054 57.0333 154.521 59.5C154.987 61.9667 155.221 64.4333 155.221 66.9ZM117.221 98.3C117.221 99.0333 117.354 99.8 117.621 100.6C117.887 101.4 118.254 102.1 118.721 102.7C119.187 103.3 119.754 103.833 120.421 104.3C121.154 104.7 121.921 104.9 122.721 104.9C125.721 104.9 128.387 103.867 130.721 101.8C133.054 99.7333 134.987 97.2 136.521 94.2C138.054 91.2 139.221 88 140.021 84.6C140.887 81.2 141.321 78.1 141.321 75.3C141.321 74.5 141.254 73.6333 141.121 72.7C141.054 71.7667 140.854 70.9 140.521 70.1C140.254 69.3 139.787 68.6333 139.121 68.1C138.521 67.5 137.687 67.2 136.621 67.2C134.487 67.2 132.521 67.7333 130.721 68.8C128.921 69.8667 127.287 71.3 125.821 73.1C124.421 74.8333 123.187 76.8333 122.121 79.1C121.054 81.3 120.121 83.5667 119.321 85.9C118.587 88.1667 118.054 90.4 117.721 92.6C117.387 94.8 117.221 96.7 117.221 98.3ZM189.458 119C187.792 119.267 185.958 119.567 183.958 119.9C181.958 120.233 180.158 120.533 178.558 120.8C178.825 118.6 179.092 116.433 179.358 114.3C179.558 112.433 179.725 110.567 179.858 108.7C180.058 106.833 180.225 105.233 180.358 103.9H171.658L167.658 118.3C166.192 118.5 164.458 118.733 162.458 119C160.458 119.2 158.592 119.4 156.858 119.6C154.725 119.867 152.625 120.133 150.558 120.4C153.225 111.533 155.858 102.8 158.458 94.2C159.525 90.6 160.625 86.8333 161.758 82.9C162.958 78.9667 164.125 75.0667 165.258 71.2C166.458 67.2667 167.592 63.5 168.658 59.9C169.725 56.3 170.658 53 171.458 50C175.992 49.6667 180.592 49.2667 185.258 48.8C189.992 48.3333 194.592 47.7 199.058 46.9C198.858 49.0333 198.625 51.7 198.358 54.9C198.158 58.0333 197.958 61.4667 197.758 65.2C197.558 68.9333 197.358 72.8333 197.158 76.9C196.958 80.9667 196.758 84.9667 196.558 88.9C196.225 98.1 195.858 107.867 195.458 118.2C193.458 118.533 191.458 118.8 189.458 119ZM174.058 93.9C174.325 93.9 174.792 93.9 175.458 93.9C176.192 93.8333 176.925 93.8 177.658 93.8C178.458 93.7333 179.192 93.7 179.858 93.7C180.525 93.6333 180.992 93.5667 181.258 93.5C181.258 93.1 181.292 92.4333 181.358 91.5C181.492 90.5 181.592 89.4 181.658 88.2C181.792 86.9333 181.925 85.5667 182.058 84.1C182.192 82.6333 182.325 81.2 182.458 79.8C182.725 76.4 183.058 72.7333 183.458 68.8L184.058 60.1L182.558 60.2L180.258 68.8L174.058 93.9ZM52.5797 206.1C54.3797 197.233 56.113 188.567 57.7797 180.1C58.3797 176.5 59.0464 172.767 59.7797 168.9C60.513 164.967 61.1797 161.1 61.7797 157.3C62.4464 153.433 63.0464 149.733 63.5797 146.2C64.1797 142.6 64.6464 139.333 64.9797 136.4C68.7797 135.2 72.8797 134.333 77.2797 133.8C81.6797 133.2 86.0464 132.9 90.3797 132.9C92.9797 132.9 95.113 133.2 96.7797 133.8C98.513 134.4 99.8464 135.267 100.78 136.4C101.78 137.467 102.48 138.733 102.88 140.2C103.28 141.667 103.48 143.3 103.48 145.1C103.48 147.767 103.013 150.4 102.08 153C101.146 155.533 99.8797 157.967 98.2797 160.3C96.7464 162.567 94.9464 164.667 92.8797 166.6C90.8797 168.467 88.713 170 86.3797 171.2C87.5797 173.867 88.8464 176.8 90.1797 180C91.5797 183.133 92.8797 186.133 94.0797 189C95.413 192.333 96.7797 195.667 98.1797 199L82.6797 204.4C81.3464 199.8 80.1464 195.467 79.0797 191.4C78.613 189.733 78.1464 188.033 77.6797 186.3C77.213 184.5 76.7797 182.833 76.3797 181.3C75.9797 179.7 75.6464 178.3 75.3797 177.1C75.113 175.9 74.9464 174.967 74.8797 174.3L73.5797 174.7C73.1797 176.833 72.6797 179.433 72.0797 182.5C71.5464 185.567 71.0464 188.533 70.5797 191.4C69.9797 194.8 69.3797 198.3 68.7797 201.9L52.5797 206.1ZM76.0797 162.7C77.3464 162.567 78.8797 162.033 80.6797 161.1C82.5464 160.167 84.313 159.067 85.9797 157.8C87.6464 156.467 89.0797 155.1 90.2797 153.7C91.4797 152.3 92.0797 151.067 92.0797 150C92.0797 149.267 91.8464 148.7 91.3797 148.3C90.913 147.833 90.2464 147.5 89.3797 147.3C88.5797 147.033 87.6797 146.867 86.6797 146.8C85.6797 146.733 84.6464 146.7 83.5797 146.7C82.8464 146.7 82.0797 146.733 81.2797 146.8C80.5464 146.8 79.8797 146.8 79.2797 146.8L76.0797 162.7ZM143.213 186.5C142.28 190.3 140.947 193.533 139.213 196.2C137.547 198.867 135.547 201.067 133.213 202.8C130.947 204.533 128.513 205.8 125.913 206.6C123.313 207.4 120.713 207.8 118.113 207.8C116.58 207.8 115.013 207.533 113.413 207C111.813 206.533 110.38 205.8 109.113 204.8C107.847 203.8 106.78 202.533 105.913 201C105.113 199.467 104.713 197.667 104.713 195.6C104.713 195.333 104.713 195.067 104.713 194.8C104.713 194.533 104.747 194.267 104.813 194C105.08 191.267 105.513 187.967 106.113 184.1C106.713 180.233 107.347 176.2 108.013 172C108.68 167.8 109.413 163.6 110.213 159.4C111.013 155.133 111.713 151.267 112.313 147.8C112.98 144.333 113.547 141.467 114.013 139.2C114.48 136.867 114.78 135.433 114.913 134.9C116.313 134.767 117.98 134.6 119.913 134.4C121.847 134.2 123.647 134.033 125.313 133.9C127.38 133.7 129.413 133.5 131.413 133.3C129.68 141.367 128.147 148.667 126.813 155.2C126.213 158 125.613 160.8 125.013 163.6C124.48 166.4 123.947 168.967 123.413 171.3C122.947 173.633 122.513 175.667 122.113 177.4C121.78 179.067 121.48 180.433 121.213 181.5C121.013 182.567 120.747 183.933 120.413 185.6C120.147 187.2 120.013 188.667 120.013 190C120.013 191.067 120.28 191.967 120.813 192.7C121.347 193.367 122.013 193.7 122.813 193.7C123.947 193.7 124.88 193.267 125.613 192.4C126.347 191.467 126.947 190.367 127.413 189.1C127.947 187.833 128.313 186.567 128.513 185.3C128.78 183.967 129.013 182.933 129.213 182.2C129.613 180.267 130.047 178.133 130.513 175.8C131.047 173.4 131.547 170.933 132.013 168.4C132.547 165.8 133.047 163.167 133.513 160.5C134.047 157.833 134.547 155.233 135.013 152.7C136.147 146.833 137.247 140.767 138.313 134.5L153.513 133.5C153.513 133.5 153.347 134.367 153.013 136.1C152.68 137.833 152.247 140.133 151.713 143C151.18 145.867 150.58 149.133 149.913 152.8C149.313 156.467 148.613 160.3 147.813 164.3C147.013 168.233 146.213 172.133 145.413 176C144.68 179.8 143.947 183.3 143.213 186.5ZM149.108 206.5C150.974 197.1 152.774 187.933 154.508 179C155.174 175.267 155.874 171.367 156.608 167.3C157.408 163.167 158.141 159.133 158.808 155.2C159.474 151.2 160.074 147.367 160.608 143.7C161.208 139.967 161.674 136.567 162.008 133.5C164.074 133.367 166.074 133.233 168.008 133.1C169.741 132.967 171.508 132.867 173.308 132.8C175.108 132.667 176.708 132.533 178.108 132.4C178.974 137.533 179.741 142.433 180.408 147.1C180.741 149.1 181.074 151.2 181.408 153.4C181.808 155.533 182.174 157.6 182.508 159.6C182.841 161.6 183.174 163.533 183.508 165.4C183.841 167.2 184.174 168.8 184.508 170.2C184.774 168.8 185.074 167.2 185.408 165.4C185.741 163.533 186.108 161.6 186.508 159.6C186.908 157.533 187.308 155.433 187.708 153.3C188.174 151.167 188.608 149.1 189.008 147.1C190.008 142.433 191.041 137.567 192.108 132.5L204.308 131C202.041 141 200.041 150.467 198.308 159.4C197.508 163.267 196.708 167.167 195.908 171.1C195.174 175.033 194.474 178.833 193.808 182.5C193.141 186.167 192.574 189.567 192.108 192.7C191.641 195.767 191.274 198.367 191.008 200.5C190.808 200.5 190.008 200.667 188.608 201C187.274 201.267 185.708 201.6 183.908 202C182.174 202.4 180.408 202.833 178.608 203.3C176.874 203.7 175.574 204.033 174.708 204.3C174.241 198.9 173.741 193.767 173.208 188.9C173.008 186.833 172.774 184.7 172.508 182.5C172.241 180.3 171.974 178.2 171.708 176.2C171.508 174.2 171.274 172.333 171.008 170.6C170.808 168.8 170.608 167.3 170.408 166.1C170.208 167.3 169.941 168.767 169.608 170.5C169.274 172.233 168.941 174.1 168.608 176.1C168.274 178.033 167.941 180.067 167.608 182.2C167.274 184.267 166.908 186.3 166.508 188.3C165.641 193.033 164.708 197.967 163.708 203.1L149.108 206.5Z" fill="white"/>
</svg>
