<svg width="147" height="51" viewBox="0 0 147 51" fill="none" xmlns="http://www.w3.org/2000/svg">
<path d="M24.432 17.472C24.432 19.136 24.192 20.912 23.712 22.8C23.232 24.656 22.56 26.512 21.696 28.368C20.832 30.192 19.76 31.952 18.48 33.648C17.232 35.312 15.808 36.784 14.208 38.064C12.608 39.312 10.848 40.32 8.928 41.088C7.04 41.856 5.024 42.24 2.88 42.24C2.432 42.24 1.984 42.208 1.536 42.144C1.088 42.112 0.64 42.064 0.192 42C1.056 37.584 1.904 33.28 2.736 29.088C3.056 27.328 3.392 25.504 3.744 23.616C4.096 21.696 4.432 19.808 4.752 17.952C5.072 16.096 5.376 14.32 5.664 12.624C5.984 10.928 6.24 9.392 6.432 8.016C7.808 7.76 9.2 7.52 10.608 7.296C12.016 7.072 13.456 6.96 14.928 6.96C16.656 6.96 18.112 7.232 19.296 7.776C20.512 8.32 21.488 9.072 22.224 10.032C22.992 10.992 23.552 12.112 23.904 13.392C24.256 14.672 24.432 16.032 24.432 17.472ZM13.104 13.728C12.752 15.616 12.384 17.424 12 19.152C11.616 20.88 11.232 22.624 10.848 24.384C10.464 26.144 10.08 27.984 9.696 29.904C9.312 31.824 8.944 33.92 8.592 36.192C9.36 35.68 10.096 34.992 10.8 34.128C11.536 33.232 12.224 32.208 12.864 31.056C13.504 29.904 14.08 28.688 14.592 27.408C15.136 26.128 15.6 24.88 15.984 23.664C16.368 22.448 16.656 21.312 16.848 20.256C17.072 19.2 17.184 18.288 17.184 17.52C17.184 16.336 16.848 15.408 16.176 14.736C15.536 14.064 14.512 13.728 13.104 13.728ZM50.4675 16.032C50.4675 18.656 50.1795 21.136 49.6035 23.472C49.0595 25.776 48.3235 27.904 47.3955 29.856C46.4675 31.776 45.3795 33.504 44.1315 35.04C42.9155 36.544 41.6355 37.84 40.2915 38.928C38.9475 39.984 37.5875 40.8 36.2115 41.376C34.8355 41.92 33.5235 42.192 32.2755 42.192C31.2195 42.192 30.2595 42 29.3955 41.616C28.5315 41.2 27.7795 40.608 27.1395 39.84C26.4995 39.04 25.9875 38.032 25.6035 36.816C25.2515 35.568 25.0755 34.08 25.0755 32.352C25.0755 30.56 25.2995 28.672 25.7475 26.688C26.1955 24.704 26.8035 22.736 27.5715 20.784C28.3395 18.832 29.2835 16.976 30.4035 15.216C31.5235 13.456 32.7555 11.904 34.0995 10.56C35.4435 9.184 36.8835 8.096 38.4195 7.296C39.9555 6.496 41.5555 6.096 43.2195 6.096C44.6595 6.096 45.8435 6.4 46.7715 7.008C47.7315 7.584 48.4675 8.352 48.9795 9.312C49.5235 10.24 49.9075 11.296 50.1315 12.48C50.3555 13.664 50.4675 14.848 50.4675 16.032ZM32.2275 31.104C32.2275 31.456 32.2915 31.824 32.4195 32.208C32.5475 32.592 32.7235 32.928 32.9475 33.216C33.1715 33.504 33.4435 33.76 33.7635 33.984C34.1155 34.176 34.4835 34.272 34.8675 34.272C36.3075 34.272 37.5875 33.776 38.7075 32.784C39.8275 31.792 40.7555 30.576 41.4915 29.136C42.2275 27.696 42.7875 26.16 43.1715 24.528C43.5875 22.896 43.7955 21.408 43.7955 20.064C43.7955 19.68 43.7635 19.264 43.6995 18.816C43.6675 18.368 43.5715 17.952 43.4115 17.568C43.2835 17.184 43.0595 16.864 42.7395 16.608C42.4515 16.32 42.0515 16.176 41.5395 16.176C40.5155 16.176 39.5715 16.432 38.7075 16.944C37.8435 17.456 37.0595 18.144 36.3555 19.008C35.6835 19.84 35.0915 20.8 34.5795 21.888C34.0675 22.944 33.6195 24.032 33.2355 25.152C32.8835 26.24 32.6275 27.312 32.4675 28.368C32.3075 29.424 32.2275 30.336 32.2275 31.104ZM66.9015 41.04C66.1015 41.168 65.2215 41.312 64.2615 41.472C63.3015 41.632 62.4375 41.776 61.6695 41.904C61.7975 40.848 61.9255 39.808 62.0535 38.784C62.1495 37.888 62.2295 36.992 62.2935 36.096C62.3895 35.2 62.4695 34.432 62.5335 33.792H58.3575L56.4375 40.704C55.7335 40.8 54.9015 40.912 53.9415 41.04C52.9815 41.136 52.0855 41.232 51.2535 41.328C50.2295 41.456 49.2215 41.584 48.2295 41.712C49.5095 37.456 50.7735 33.264 52.0215 29.136C52.5335 27.408 53.0615 25.6 53.6055 23.712C54.1815 21.824 54.7415 19.952 55.2855 18.096C55.8615 16.208 56.4055 14.4 56.9175 12.672C57.4295 10.944 57.8775 9.36 58.2615 7.92C60.4375 7.76 62.6455 7.568 64.8855 7.344C67.1575 7.12 69.3655 6.816 71.5095 6.432C71.4135 7.456 71.3015 8.736 71.1735 10.272C71.0775 11.776 70.9815 13.424 70.8855 15.216C70.7895 17.008 70.6935 18.88 70.5975 20.832C70.5015 22.784 70.4055 24.704 70.3095 26.592C70.1495 31.008 69.9735 35.696 69.7815 40.656C68.8215 40.816 67.8615 40.944 66.9015 41.04ZM59.5095 28.992C59.6375 28.992 59.8615 28.992 60.1815 28.992C60.5335 28.96 60.8855 28.944 61.2375 28.944C61.6215 28.912 61.9735 28.896 62.2935 28.896C62.6135 28.864 62.8375 28.832 62.9655 28.8C62.9655 28.608 62.9815 28.288 63.0135 27.84C63.0775 27.36 63.1255 26.832 63.1575 26.256C63.2215 25.648 63.2855 24.992 63.3495 24.288C63.4135 23.584 63.4775 22.896 63.5415 22.224C63.6695 20.592 63.8295 18.832 64.0215 16.944L64.3095 12.768L63.5895 12.816L62.4855 16.944L59.5095 28.992ZM72.5951 42.048C73.4591 37.792 74.2911 33.632 75.0911 29.568C75.3791 27.84 75.6991 26.048 76.0511 24.192C76.4031 22.304 76.7231 20.448 77.0111 18.624C77.3311 16.768 77.6191 14.992 77.8751 13.296C78.1631 11.568 78.3871 10 78.5471 8.592C80.3711 8.016 82.3391 7.6 84.4511 7.344C86.5631 7.056 88.6591 6.912 90.7391 6.912C91.9871 6.912 93.0111 7.056 93.8111 7.344C94.6431 7.632 95.2831 8.048 95.7311 8.592C96.2111 9.104 96.5471 9.712 96.7391 10.416C96.9311 11.12 97.0271 11.904 97.0271 12.768C97.0271 14.048 96.8031 15.312 96.3551 16.56C95.9071 17.776 95.2991 18.944 94.5311 20.064C93.7951 21.152 92.9311 22.16 91.9391 23.088C90.9791 23.984 89.9391 24.72 88.8191 25.296C89.3951 26.576 90.0031 27.984 90.6431 29.52C91.3151 31.024 91.9391 32.464 92.5151 33.84C93.1551 35.44 93.8111 37.04 94.4831 38.64L87.0431 41.232C86.4031 39.024 85.8271 36.944 85.3151 34.992C85.0911 34.192 84.8671 33.376 84.6431 32.544C84.4191 31.68 84.2111 30.88 84.0191 30.144C83.8271 29.376 83.6671 28.704 83.5391 28.128C83.4111 27.552 83.3311 27.104 83.2991 26.784L82.6751 26.976C82.4831 28 82.2431 29.248 81.9551 30.72C81.6991 32.192 81.4591 33.616 81.2351 34.992C80.9471 36.624 80.6591 38.304 80.3711 40.032L72.5951 42.048ZM83.8751 21.216C84.4831 21.152 85.2191 20.896 86.0831 20.448C86.9791 20 87.8271 19.472 88.6271 18.864C89.4271 18.224 90.1151 17.568 90.6911 16.896C91.2671 16.224 91.5551 15.632 91.5551 15.12C91.5551 14.768 91.4431 14.496 91.2191 14.304C90.9951 14.08 90.6751 13.92 90.2591 13.824C89.8751 13.696 89.4431 13.616 88.9631 13.584C88.4831 13.552 87.9871 13.536 87.4751 13.536C87.1231 13.536 86.7551 13.552 86.3711 13.584C86.0191 13.584 85.6991 13.584 85.4111 13.584L83.8751 21.216ZM116.099 32.64C115.651 34.464 115.011 36.016 114.179 37.296C113.379 38.576 112.419 39.632 111.299 40.464C110.211 41.296 109.043 41.904 107.795 42.288C106.547 42.672 105.299 42.864 104.051 42.864C103.315 42.864 102.563 42.736 101.795 42.48C101.027 42.256 100.339 41.904 99.7312 41.424C99.1232 40.944 98.6112 40.336 98.1952 39.6C97.8112 38.864 97.6192 38 97.6192 37.008C97.6192 36.88 97.6192 36.752 97.6192 36.624C97.6192 36.496 97.6352 36.368 97.6672 36.24C97.7952 34.928 98.0032 33.344 98.2912 31.488C98.5792 29.632 98.8832 27.696 99.2032 25.68C99.5232 23.664 99.8752 21.648 100.259 19.632C100.643 17.584 100.979 15.728 101.267 14.064C101.587 12.4 101.859 11.024 102.083 9.936C102.307 8.816 102.451 8.128 102.515 7.872C103.187 7.808 103.987 7.728 104.915 7.632C105.843 7.536 106.707 7.456 107.507 7.392C108.499 7.296 109.475 7.2 110.435 7.104C109.603 10.976 108.867 14.48 108.227 17.616C107.939 18.96 107.651 20.304 107.363 21.648C107.107 22.992 106.851 24.224 106.595 25.344C106.371 26.464 106.163 27.44 105.971 28.272C105.811 29.072 105.667 29.728 105.539 30.24C105.443 30.752 105.315 31.408 105.155 32.208C105.027 32.976 104.963 33.68 104.963 34.32C104.963 34.832 105.091 35.264 105.347 35.616C105.603 35.936 105.923 36.096 106.307 36.096C106.851 36.096 107.299 35.888 107.651 35.472C108.003 35.024 108.291 34.496 108.515 33.888C108.771 33.28 108.947 32.672 109.043 32.064C109.171 31.424 109.283 30.928 109.379 30.576C109.571 29.648 109.779 28.624 110.003 27.504C110.259 26.352 110.499 25.168 110.723 23.952C110.979 22.704 111.219 21.44 111.443 20.16C111.699 18.88 111.939 17.632 112.163 16.416C112.707 13.6 113.235 10.688 113.747 7.68L121.043 7.2C121.043 7.2 120.963 7.616 120.803 8.448C120.643 9.28 120.435 10.384 120.179 11.76C119.923 13.136 119.635 14.704 119.315 16.464C119.027 18.224 118.691 20.064 118.307 21.984C117.923 23.872 117.539 25.744 117.155 27.6C116.803 29.424 116.451 31.104 116.099 32.64ZM118.929 42.24C119.825 37.728 120.689 33.328 121.521 29.04C121.841 27.248 122.177 25.376 122.529 23.424C122.913 21.44 123.265 19.504 123.585 17.616C123.905 15.696 124.193 13.856 124.449 12.096C124.737 10.304 124.961 8.672 125.121 7.2C126.113 7.136 127.073 7.072 128.001 7.008C128.833 6.944 129.681 6.896 130.545 6.864C131.409 6.8 132.177 6.736 132.849 6.672C133.265 9.136 133.633 11.488 133.953 13.728C134.113 14.688 134.273 15.696 134.433 16.752C134.625 17.776 134.801 18.768 134.961 19.728C135.121 20.688 135.281 21.616 135.441 22.512C135.601 23.376 135.761 24.144 135.921 24.816C136.049 24.144 136.193 23.376 136.353 22.512C136.513 21.616 136.689 20.688 136.881 19.728C137.073 18.736 137.265 17.728 137.457 16.704C137.681 15.68 137.889 14.688 138.081 13.728C138.561 11.488 139.057 9.152 139.569 6.72L145.425 6C144.337 10.8 143.377 15.344 142.545 19.632C142.161 21.488 141.777 23.36 141.393 25.248C141.041 27.136 140.705 28.96 140.385 30.72C140.065 32.48 139.793 34.112 139.569 35.616C139.345 37.088 139.169 38.336 139.041 39.36C138.945 39.36 138.561 39.44 137.889 39.6C137.249 39.728 136.497 39.888 135.633 40.08C134.801 40.272 133.953 40.48 133.089 40.704C132.257 40.896 131.633 41.056 131.217 41.184C130.993 38.592 130.753 36.128 130.497 33.792C130.401 32.8 130.289 31.776 130.161 30.72C130.033 29.664 129.905 28.656 129.777 27.696C129.681 26.736 129.569 25.84 129.441 25.008C129.345 24.144 129.249 23.424 129.153 22.848C129.057 23.424 128.929 24.128 128.769 24.96C128.609 25.792 128.449 26.688 128.289 27.648C128.129 28.576 127.969 29.552 127.809 30.576C127.649 31.568 127.473 32.544 127.281 33.504C126.865 35.776 126.417 38.144 125.937 40.608L118.929 42.24Z" fill="#00C6C7"/>
<path d="M25.432 17.472C25.432 19.136 25.192 20.912 24.712 22.8C24.232 24.656 23.56 26.512 22.696 28.368C21.832 30.192 20.76 31.952 19.48 33.648C18.232 35.312 16.808 36.784 15.208 38.064C13.608 39.312 11.848 40.32 9.928 41.088C8.04 41.856 6.024 42.24 3.88 42.24C3.432 42.24 2.984 42.208 2.536 42.144C2.088 42.112 1.64 42.064 1.192 42C2.056 37.584 2.904 33.28 3.736 29.088C4.056 27.328 4.392 25.504 4.744 23.616C5.096 21.696 5.432 19.808 5.752 17.952C6.072 16.096 6.376 14.32 6.664 12.624C6.984 10.928 7.24 9.392 7.432 8.016C8.808 7.76 10.2 7.52 11.608 7.296C13.016 7.072 14.456 6.96 15.928 6.96C17.656 6.96 19.112 7.232 20.296 7.776C21.512 8.32 22.488 9.072 23.224 10.032C23.992 10.992 24.552 12.112 24.904 13.392C25.256 14.672 25.432 16.032 25.432 17.472ZM14.104 13.728C13.752 15.616 13.384 17.424 13 19.152C12.616 20.88 12.232 22.624 11.848 24.384C11.464 26.144 11.08 27.984 10.696 29.904C10.312 31.824 9.944 33.92 9.592 36.192C10.36 35.68 11.096 34.992 11.8 34.128C12.536 33.232 13.224 32.208 13.864 31.056C14.504 29.904 15.08 28.688 15.592 27.408C16.136 26.128 16.6 24.88 16.984 23.664C17.368 22.448 17.656 21.312 17.848 20.256C18.072 19.2 18.184 18.288 18.184 17.52C18.184 16.336 17.848 15.408 17.176 14.736C16.536 14.064 15.512 13.728 14.104 13.728ZM51.4675 16.032C51.4675 18.656 51.1795 21.136 50.6035 23.472C50.0595 25.776 49.3235 27.904 48.3955 29.856C47.4675 31.776 46.3795 33.504 45.1315 35.04C43.9155 36.544 42.6355 37.84 41.2915 38.928C39.9475 39.984 38.5875 40.8 37.2115 41.376C35.8355 41.92 34.5235 42.192 33.2755 42.192C32.2195 42.192 31.2595 42 30.3955 41.616C29.5315 41.2 28.7795 40.608 28.1395 39.84C27.4995 39.04 26.9875 38.032 26.6035 36.816C26.2515 35.568 26.0755 34.08 26.0755 32.352C26.0755 30.56 26.2995 28.672 26.7475 26.688C27.1955 24.704 27.8035 22.736 28.5715 20.784C29.3395 18.832 30.2835 16.976 31.4035 15.216C32.5235 13.456 33.7555 11.904 35.0995 10.56C36.4435 9.184 37.8835 8.096 39.4195 7.296C40.9555 6.496 42.5555 6.096 44.2195 6.096C45.6595 6.096 46.8435 6.4 47.7715 7.008C48.7315 7.584 49.4675 8.352 49.9795 9.312C50.5235 10.24 50.9075 11.296 51.1315 12.48C51.3555 13.664 51.4675 14.848 51.4675 16.032ZM33.2275 31.104C33.2275 31.456 33.2915 31.824 33.4195 32.208C33.5475 32.592 33.7235 32.928 33.9475 33.216C34.1715 33.504 34.4435 33.76 34.7635 33.984C35.1155 34.176 35.4835 34.272 35.8675 34.272C37.3075 34.272 38.5875 33.776 39.7075 32.784C40.8275 31.792 41.7555 30.576 42.4915 29.136C43.2275 27.696 43.7875 26.16 44.1715 24.528C44.5875 22.896 44.7955 21.408 44.7955 20.064C44.7955 19.68 44.7635 19.264 44.6995 18.816C44.6675 18.368 44.5715 17.952 44.4115 17.568C44.2835 17.184 44.0595 16.864 43.7395 16.608C43.4515 16.32 43.0515 16.176 42.5395 16.176C41.5155 16.176 40.5715 16.432 39.7075 16.944C38.8435 17.456 38.0595 18.144 37.3555 19.008C36.6835 19.84 36.0915 20.8 35.5795 21.888C35.0675 22.944 34.6195 24.032 34.2355 25.152C33.8835 26.24 33.6275 27.312 33.4675 28.368C33.3075 29.424 33.2275 30.336 33.2275 31.104ZM67.9015 41.04C67.1015 41.168 66.2215 41.312 65.2615 41.472C64.3015 41.632 63.4375 41.776 62.6695 41.904C62.7975 40.848 62.9255 39.808 63.0535 38.784C63.1495 37.888 63.2295 36.992 63.2935 36.096C63.3895 35.2 63.4695 34.432 63.5335 33.792H59.3575L57.4375 40.704C56.7335 40.8 55.9015 40.912 54.9415 41.04C53.9815 41.136 53.0855 41.232 52.2535 41.328C51.2295 41.456 50.2215 41.584 49.2295 41.712C50.5095 37.456 51.7735 33.264 53.0215 29.136C53.5335 27.408 54.0615 25.6 54.6055 23.712C55.1815 21.824 55.7415 19.952 56.2855 18.096C56.8615 16.208 57.4055 14.4 57.9175 12.672C58.4295 10.944 58.8775 9.36 59.2615 7.92C61.4375 7.76 63.6455 7.568 65.8855 7.344C68.1575 7.12 70.3655 6.816 72.5095 6.432C72.4135 7.456 72.3015 8.736 72.1735 10.272C72.0775 11.776 71.9815 13.424 71.8855 15.216C71.7895 17.008 71.6935 18.88 71.5975 20.832C71.5015 22.784 71.4055 24.704 71.3095 26.592C71.1495 31.008 70.9735 35.696 70.7815 40.656C69.8215 40.816 68.8615 40.944 67.9015 41.04ZM60.5095 28.992C60.6375 28.992 60.8615 28.992 61.1815 28.992C61.5335 28.96 61.8855 28.944 62.2375 28.944C62.6215 28.912 62.9735 28.896 63.2935 28.896C63.6135 28.864 63.8375 28.832 63.9655 28.8C63.9655 28.608 63.9815 28.288 64.0135 27.84C64.0775 27.36 64.1255 26.832 64.1575 26.256C64.2215 25.648 64.2855 24.992 64.3495 24.288C64.4135 23.584 64.4775 22.896 64.5415 22.224C64.6695 20.592 64.8295 18.832 65.0215 16.944L65.3095 12.768L64.5895 12.816L63.4855 16.944L60.5095 28.992ZM73.5951 42.048C74.4591 37.792 75.2911 33.632 76.0911 29.568C76.3791 27.84 76.6991 26.048 77.0511 24.192C77.4031 22.304 77.7231 20.448 78.0111 18.624C78.3311 16.768 78.6191 14.992 78.8751 13.296C79.1631 11.568 79.3871 10 79.5471 8.592C81.3711 8.016 83.3391 7.6 85.4511 7.344C87.5631 7.056 89.6591 6.912 91.7391 6.912C92.9871 6.912 94.0111 7.056 94.8111 7.344C95.6431 7.632 96.2831 8.048 96.7311 8.592C97.2111 9.104 97.5471 9.712 97.7391 10.416C97.9311 11.12 98.0271 11.904 98.0271 12.768C98.0271 14.048 97.8031 15.312 97.3551 16.56C96.9071 17.776 96.2991 18.944 95.5311 20.064C94.7951 21.152 93.9311 22.16 92.9391 23.088C91.9791 23.984 90.9391 24.72 89.8191 25.296C90.3951 26.576 91.0031 27.984 91.6431 29.52C92.3151 31.024 92.9391 32.464 93.5151 33.84C94.1551 35.44 94.8111 37.04 95.4831 38.64L88.0431 41.232C87.4031 39.024 86.8271 36.944 86.3151 34.992C86.0911 34.192 85.8671 33.376 85.6431 32.544C85.4191 31.68 85.2111 30.88 85.0191 30.144C84.8271 29.376 84.6671 28.704 84.5391 28.128C84.4111 27.552 84.3311 27.104 84.2991 26.784L83.6751 26.976C83.4831 28 83.2431 29.248 82.9551 30.72C82.6991 32.192 82.4591 33.616 82.2351 34.992C81.9471 36.624 81.6591 38.304 81.3711 40.032L73.5951 42.048ZM84.8751 21.216C85.4831 21.152 86.2191 20.896 87.0831 20.448C87.9791 20 88.8271 19.472 89.6271 18.864C90.4271 18.224 91.1151 17.568 91.6911 16.896C92.2671 16.224 92.5551 15.632 92.5551 15.12C92.5551 14.768 92.4431 14.496 92.2191 14.304C91.9951 14.08 91.6751 13.92 91.2591 13.824C90.8751 13.696 90.4431 13.616 89.9631 13.584C89.4831 13.552 88.9871 13.536 88.4751 13.536C88.1231 13.536 87.7551 13.552 87.3711 13.584C87.0191 13.584 86.6991 13.584 86.4111 13.584L84.8751 21.216ZM117.099 32.64C116.651 34.464 116.011 36.016 115.179 37.296C114.379 38.576 113.419 39.632 112.299 40.464C111.211 41.296 110.043 41.904 108.795 42.288C107.547 42.672 106.299 42.864 105.051 42.864C104.315 42.864 103.563 42.736 102.795 42.48C102.027 42.256 101.339 41.904 100.731 41.424C100.123 40.944 99.6112 40.336 99.1952 39.6C98.8112 38.864 98.6192 38 98.6192 37.008C98.6192 36.88 98.6192 36.752 98.6192 36.624C98.6192 36.496 98.6352 36.368 98.6672 36.24C98.7952 34.928 99.0032 33.344 99.2912 31.488C99.5792 29.632 99.8832 27.696 100.203 25.68C100.523 23.664 100.875 21.648 101.259 19.632C101.643 17.584 101.979 15.728 102.267 14.064C102.587 12.4 102.859 11.024 103.083 9.936C103.307 8.816 103.451 8.128 103.515 7.872C104.187 7.808 104.987 7.728 105.915 7.632C106.843 7.536 107.707 7.456 108.507 7.392C109.499 7.296 110.475 7.2 111.435 7.104C110.603 10.976 109.867 14.48 109.227 17.616C108.939 18.96 108.651 20.304 108.363 21.648C108.107 22.992 107.851 24.224 107.595 25.344C107.371 26.464 107.163 27.44 106.971 28.272C106.811 29.072 106.667 29.728 106.539 30.24C106.443 30.752 106.315 31.408 106.155 32.208C106.027 32.976 105.963 33.68 105.963 34.32C105.963 34.832 106.091 35.264 106.347 35.616C106.603 35.936 106.923 36.096 107.307 36.096C107.851 36.096 108.299 35.888 108.651 35.472C109.003 35.024 109.291 34.496 109.515 33.888C109.771 33.28 109.947 32.672 110.043 32.064C110.171 31.424 110.283 30.928 110.379 30.576C110.571 29.648 110.779 28.624 111.003 27.504C111.259 26.352 111.499 25.168 111.723 23.952C111.979 22.704 112.219 21.44 112.443 20.16C112.699 18.88 112.939 17.632 113.163 16.416C113.707 13.6 114.235 10.688 114.747 7.68L122.043 7.2C122.043 7.2 121.963 7.616 121.803 8.448C121.643 9.28 121.435 10.384 121.179 11.76C120.923 13.136 120.635 14.704 120.315 16.464C120.027 18.224 119.691 20.064 119.307 21.984C118.923 23.872 118.539 25.744 118.155 27.6C117.803 29.424 117.451 31.104 117.099 32.64ZM119.929 42.24C120.825 37.728 121.689 33.328 122.521 29.04C122.841 27.248 123.177 25.376 123.529 23.424C123.913 21.44 124.265 19.504 124.585 17.616C124.905 15.696 125.193 13.856 125.449 12.096C125.737 10.304 125.961 8.672 126.121 7.2C127.113 7.136 128.073 7.072 129.001 7.008C129.833 6.944 130.681 6.896 131.545 6.864C132.409 6.8 133.177 6.736 133.849 6.672C134.265 9.136 134.633 11.488 134.953 13.728C135.113 14.688 135.273 15.696 135.433 16.752C135.625 17.776 135.801 18.768 135.961 19.728C136.121 20.688 136.281 21.616 136.441 22.512C136.601 23.376 136.761 24.144 136.921 24.816C137.049 24.144 137.193 23.376 137.353 22.512C137.513 21.616 137.689 20.688 137.881 19.728C138.073 18.736 138.265 17.728 138.457 16.704C138.681 15.68 138.889 14.688 139.081 13.728C139.561 11.488 140.057 9.152 140.569 6.72L146.425 6C145.337 10.8 144.377 15.344 143.545 19.632C143.161 21.488 142.777 23.36 142.393 25.248C142.041 27.136 141.705 28.96 141.385 30.72C141.065 32.48 140.793 34.112 140.569 35.616C140.345 37.088 140.169 38.336 140.041 39.36C139.945 39.36 139.561 39.44 138.889 39.6C138.249 39.728 137.497 39.888 136.633 40.08C135.801 40.272 134.953 40.48 134.089 40.704C133.257 40.896 132.633 41.056 132.217 41.184C131.993 38.592 131.753 36.128 131.497 33.792C131.401 32.8 131.289 31.776 131.161 30.72C131.033 29.664 130.905 28.656 130.777 27.696C130.681 26.736 130.569 25.84 130.441 25.008C130.345 24.144 130.249 23.424 130.153 22.848C130.057 23.424 129.929 24.128 129.769 24.96C129.609 25.792 129.449 26.688 129.289 27.648C129.129 28.576 128.969 29.552 128.809 30.576C128.649 31.568 128.473 32.544 128.281 33.504C127.865 35.776 127.417 38.144 126.937 40.608L119.929 42.24Z" fill="white"/>
</svg>
