<svg width="190" height="169" viewBox="0 0 190 169" fill="none" xmlns="http://www.w3.org/2000/svg">
<g clip-path="url(#clip0)">
<path d="M24.2817 45.7453C16.7722 47.8476 10.3029 52.6625 6.11914 59.2633C2.37893 65.7272 0.301734 73.0239 0.0749797 80.4947C-0.23808 97.4304 5.26191 113.959 15.6526 127.309C25.3473 140.515 38.0322 150.569 51.0885 160.297C53.8424 162.348 56.6713 164.415 59.5377 166.32C60.712 167.095 65.4994 170.867 66.1709 167.878C66.2573 167.206 66.1614 166.524 65.8933 165.902C62.2352 154.786 58.3334 143.692 55.3882 132.376C52.5598 121.595 50.3054 110.67 48.6348 99.648C46.984 88.6521 46.4063 77.5848 45.5321 66.5211C45.6107 60.4027 43.534 54.4528 39.668 49.7205C37.6951 47.7333 35.2253 46.3156 32.5181 45.6162C29.8108 44.9167 26.9659 44.9613 24.2817 45.7453Z" fill="#FFB819"/>
<path d="M113.613 0C109.346 0.0276769 105.116 0.798257 101.112 2.27746C93.6123 5.10937 86.756 9.42337 80.9494 14.9636C77.9737 17.8384 75.3306 21.0408 73.0705 24.5102C67.5346 33.352 63.5855 43.0986 61.4023 53.308C58.9182 63.5634 57.8328 74.1097 58.1758 84.6581C58.5237 92.6934 59.3392 100.701 60.6182 108.641C61.7673 116.357 63.4751 123.979 65.7282 131.446C67.2289 135.726 69.6188 142.536 72.2375 141.693C73.712 141.219 75.9181 134.465 76.766 131.868C80.7943 121.855 85.5767 112.165 91.0718 102.882C96.7445 93.2561 102.74 83.8262 108.769 74.4151C109.557 73.1879 110.326 71.9456 111.129 70.7335C113.958 66.4609 116.986 62.32 119.852 58.07C125.182 50.8496 129.916 43.2051 134.008 35.2124C137.01 29.3868 137.791 22.6619 136.202 16.3C135.533 14.2301 134.589 12.26 133.396 10.4425C131.951 8.08673 130.099 6.00875 127.926 4.30649C125.252 2.36922 122.172 1.0701 118.922 0.508176C117.171 0.176384 115.394 0.00629439 113.613 0Z" fill="#FFB819"/>
<path d="M146.389 71.927C136.199 74.9386 124.459 82.7347 112.007 95.7897C102.809 105.66 94.9002 116.666 88.4719 128.54C84.274 136.816 80.9844 145.526 78.6609 154.515C78.1132 156.66 77.0552 160.975 76.785 163.173C76.5374 165.104 76.785 166.068 78.1282 166.12C79.8953 166.192 82.6678 164.024 84.4424 162.65C100.95 149.877 120.381 143.873 140.041 137.748C153.641 134.122 166.453 127.995 177.825 119.679C181.431 116.893 184.386 113.35 186.485 109.299C188.583 105.247 189.774 100.784 189.974 96.2227C190.302 90.7232 188.717 85.28 185.489 80.8232C182.261 76.3664 177.591 73.1727 172.276 71.7878C163.803 69.4094 154.836 69.4576 146.389 71.927Z" fill="#FFB819"/>
</g>
<defs>
<clipPath id="clip0">
<rect width="190" height="169" fill="white"/>
</clipPath>
</defs>
</svg>
