<svg width="320" height="128" viewBox="0 0 320 128" fill="none" xmlns="http://www.w3.org/2000/svg">
<mask id="mask0" mask-type="alpha" maskUnits="userSpaceOnUse" x="0" y="0" width="320" height="124">
<path fill-rule="evenodd" clip-rule="evenodd" d="M0 0.279297H319.496V123.916H0V0.279297Z" fill="white"/>
</mask>
<g mask="url(#mask0)">
<path fill-rule="evenodd" clip-rule="evenodd" d="M66.9416 123.916C55.5987 123.916 44.8168 122.016 35.2253 118.03C12.6152 108.636 -0.223196 88.908 0.00293774 63.9053L33.3981 64.205C33.2947 75.693 37.9464 82.9976 48.0381 87.1896C75.3693 98.5453 116.661 80.861 139.252 57.9618C157.678 39.2834 182.565 22.5154 207.536 11.9576C228.254 3.19809 258.237 -5.15498 283.413 4.79596C294.69 9.25462 303.544 16.796 309.735 27.212C315.823 37.4552 319.107 50.3394 319.496 65.5053L304.298 69.3325L286.111 66.3618C285.473 41.5234 274.681 37.2578 271.135 35.8541C259.853 31.3933 241.411 33.8936 220.542 42.7192C199.765 51.5042 178.265 65.9704 163.028 81.4157C136.499 108.307 99.4408 123.915 66.9416 123.916Z" fill="#4D4D87"/>
</g>
<path fill-rule="evenodd" clip-rule="evenodd" d="M103.436 45.6338C81.7126 34.453 60.0358 30.1287 46.8635 35.8215C43.5835 37.2391 33.6016 41.5527 33.3979 64.2055L16.4774 66.8445L0.00268555 63.9058C0.350419 25.2839 21.2112 10.5245 33.6155 5.16554C60.487 -6.44833 96.3312 2.72181 127.281 20.7261" fill="#4D4D87"/>
<mask id="mask1" mask-type="alpha" maskUnits="userSpaceOnUse" x="191" y="65" width="129" height="63">
<path fill-rule="evenodd" clip-rule="evenodd" d="M191.099 65.5059H319.531V127.999H191.099V65.5059Z" fill="white"/>
</mask>
<g mask="url(#mask1)">
<path fill-rule="evenodd" clip-rule="evenodd" d="M217.62 82.74C234.327 90.26 250.29 94.6387 262.484 94.6397C267.564 94.6408 271.987 93.8813 275.541 92.2728C278.287 91.028 286.647 87.2424 286.11 66.3624L319.497 65.5059C320.457 102.939 301 117.403 289.318 122.695C280.955 126.482 271.784 128 262.46 128C244.524 128.001 226.013 122.388 211.549 116.511C204.739 113.743 197.881 110.541 191.099 106.982" fill="#4D4D87"/>
</g>
<path fill-rule="evenodd" clip-rule="evenodd" d="M192.036 34.8624C186.97 30.9702 181.836 29.0864 176.692 28.1787C165.826 35.0342 155.527 42.7984 146.419 51.0854C153.598 51.416 160.719 52.7728 166.989 57.3126C171.119 60.3046 174.147 64.4582 176.683 69.1611C184.956 62.5104 194.13 56.3366 203.557 51.0726C200.314 44.4859 196.82 38.5382 192.036 34.8624Z" fill="#3E416D"/>
<path fill-rule="evenodd" clip-rule="evenodd" d="M131.018 60.6183C134.999 58.0946 144.084 53.7522 153.029 59.3799C165.703 67.3554 163.419 81.8653 162.124 87.0066C161.826 88.1874 161.985 89.1527 162.711 89.6455C166.838 92.4487 181.356 102.174 190.985 106.92L201.22 88.6237L157.043 42.0711L121.623 37.4141L103.437 45.637C103.437 45.637 118.096 53.4439 127.28 60.741C127.852 61.1965 129.69 61.4589 131.018 60.6183Z" fill="#DE9C51"/>
<path fill-rule="evenodd" clip-rule="evenodd" d="M127.077 20.6113C144.428 30.7329 163.663 18.5356 182.017 32.6359C196.19 43.5255 199.029 74.3169 217.62 82.7383L208.549 97.9468L191.099 106.983C172.462 96.1708 173.111 66.7756 156.968 55.0871C140.138 42.8993 117.174 53.6407 103.436 45.6375L113.738 30.8737L127.077 20.6113Z" fill="#4D4D87"/>
<path fill-rule="evenodd" clip-rule="evenodd" d="M141.152 34.4911C136.818 34.7087 136.698 37.4138 141.091 37.417C145.109 37.4202 150.21 38.3823 152.742 38.6031C155.274 38.8239 156.316 35.7573 152.415 35.2165C148.981 34.7386 143.837 34.3567 141.152 34.4911Z" fill="white"/>
<path fill-rule="evenodd" clip-rule="evenodd" d="M168.658 40.1506C164.669 37.645 161.656 40.4386 166.236 42.9634C169.632 44.8365 172.284 47.4562 174.226 50.3991C175.94 52.9997 178.384 51.9426 177.007 48.4994C175.338 44.3255 171.117 41.6941 168.658 40.1506Z" fill="white"/>
<path fill-rule="evenodd" clip-rule="evenodd" d="M225.319 24.2622C228.236 23.235 229.896 19.5688 224.36 21.0632C218.823 22.5587 216.438 24.1726 214.219 25.4344C212.001 26.6942 211.741 29.6616 215.999 28.0712C220.257 26.4808 222.401 25.2894 225.319 24.2622Z" fill="white"/>
<path fill-rule="evenodd" clip-rule="evenodd" d="M190.975 37.966C189.069 39.0978 188.395 42.4343 192.704 40.4748C197.012 38.5132 198.061 37.8103 201.479 35.7655C204.898 33.7186 203.768 30.8279 199.564 32.9922C195.359 35.1564 194.597 35.8156 190.975 37.966Z" fill="white"/>
<path fill-rule="evenodd" clip-rule="evenodd" d="M185.263 62.7868C184.096 60.6194 181.045 59.4258 182.133 63.4684C183.222 67.5111 184.323 68.9788 185.597 71.686C186.873 74.3932 190.468 75.0887 188.778 70.4754C187.088 65.8631 186.113 64.3644 185.263 62.7868Z" fill="white"/>
<path fill-rule="evenodd" clip-rule="evenodd" d="M250.236 108.531C247.073 108.374 245.421 110.338 249.174 111.132C252.925 111.925 256.456 112.154 258.622 112.211C260.79 112.269 261.205 109.507 258.552 109.264C255.899 109.021 253.268 108.684 250.236 108.531Z" fill="white"/>
<path fill-rule="evenodd" clip-rule="evenodd" d="M297.597 90.3109C296.902 92.968 299.147 94.5018 300.299 90.8954C301.451 87.2901 302.106 84.8986 302.182 82.1296C302.258 79.3616 299.682 79.9984 299.26 82.2213C298.835 84.4442 298.533 86.728 297.597 90.3109Z" fill="white"/>
<path fill-rule="evenodd" clip-rule="evenodd" d="M301.18 63.0248C301.347 66.292 304.419 66.0413 304.381 63.0653C304.342 60.0893 303.901 56.4456 303.477 53.7267C303.054 51.0088 300.458 52.3976 300.905 55.6979C301.351 58.9992 301.016 59.8205 301.18 63.0248Z" fill="white"/>
<path fill-rule="evenodd" clip-rule="evenodd" d="M293.643 35.3667C295.214 37.9075 297.401 36.9123 295.938 34.027C294.476 31.1416 293.82 29.8862 291.879 27.9918C289.938 26.0974 288.637 27.8424 290.27 30.1571C291.902 32.4718 292.63 33.7315 293.643 35.3667Z" fill="white"/>
<path fill-rule="evenodd" clip-rule="evenodd" d="M276.169 21.7293C278.193 22.4365 280.788 20.8034 277.272 19.2151C273.754 17.6258 271.547 17.4274 268.85 17.0498C266.152 16.6743 265.91 19.0509 269.236 19.5703C272.564 20.0887 274.296 21.0754 276.169 21.7293Z" fill="white"/>
<path fill-rule="evenodd" clip-rule="evenodd" d="M28.4989 29.4695C27.0535 30.95 24.3954 34.7463 23.3661 36.2311C21.5815 38.8007 18.3239 37.3863 20.4135 34.2439C22.5042 31.1004 24.7645 28.9468 26.0615 27.5922C27.3597 26.2386 30.1287 27.8012 28.4989 29.4695Z" fill="white"/>
<path fill-rule="evenodd" clip-rule="evenodd" d="M14.6508 53.1721C14.2764 55.763 14.1868 58.7497 14.3073 60.963C14.4268 63.1763 17.0774 64.1577 17.4241 61.1006C17.7697 58.0435 17.902 55.2734 18.0054 53.5283C18.2017 50.2035 15.0358 50.5033 14.6508 53.1721Z" fill="white"/>
<path fill-rule="evenodd" clip-rule="evenodd" d="M50.5498 15.4395C52.872 15.2805 54.6245 17.9269 51.1056 18.6299C47.5856 19.3339 46.8133 19.4203 44.1797 20.6117C41.5472 21.8021 38.5797 19.1003 42.3621 17.4683C46.1445 15.8373 46.9509 15.6869 50.5498 15.4395Z" fill="white"/>
<path fill-rule="evenodd" clip-rule="evenodd" d="M78.4716 16.293C76.9986 15.7052 71.4028 15.125 69.949 14.9671C68.494 14.8082 66.6711 17.3479 69.4391 17.9986C72.2071 18.6471 76.3639 18.7804 77.9447 19.254C80.653 20.0658 80.5388 17.1175 78.4716 16.293Z" fill="white"/>
<path fill-rule="evenodd" clip-rule="evenodd" d="M102.59 22.9861C101.104 22.1595 97.8289 20.9211 95.2667 20.3536C91.8342 19.5931 91.7275 22.8837 94.4998 23.5536C97.271 24.2224 99.3382 25.2475 101.729 26.2245C103.952 27.1344 105.777 24.7611 102.59 22.9861Z" fill="white"/>
<path fill-rule="evenodd" clip-rule="evenodd" d="M116.521 32.4509C113.92 30.8776 115.26 28.0637 117.871 29.7586C120.232 31.2914 122.597 32.4733 125.423 32.8242C128.835 33.2445 127.602 35.7085 124.894 35.397C121.965 35.06 119.093 34.0072 116.521 32.4509Z" fill="white"/>
<path fill-rule="evenodd" clip-rule="evenodd" d="M277.322 106.62C274.761 107.4 274.435 110.143 277.93 109.643C281.145 109.183 283.3 108.343 286.29 106.387C289.28 104.433 288.683 101.795 285.548 103.204C282.223 104.7 280.812 105.556 277.322 106.62Z" fill="white"/>
<path fill-rule="evenodd" clip-rule="evenodd" d="M250.422 18.3237C253.499 17.5418 253.849 15.0746 250.411 15.145C246.087 15.2314 243.39 16.1488 241.047 17.3552C238.704 18.5605 239.257 20.5733 242.462 19.6794C245.27 18.8965 248.26 18.8741 250.422 18.3237Z" fill="white"/>
<path fill-rule="evenodd" clip-rule="evenodd" d="M194.211 86.4041C195.737 88.8692 199.02 91.1636 202.589 92.914C206.159 94.6622 207.896 91.0196 204.094 89.3993C200.471 87.8537 198.425 86.1396 196.885 83.41C195.629 81.1838 191.108 81.3854 194.211 86.4041Z" fill="white"/>
<path fill-rule="evenodd" clip-rule="evenodd" d="M219.313 97.8146C217.073 96.8919 213.533 98.7639 217.93 101.077C222.326 103.392 224.924 104.225 228.358 105.084C231.465 105.861 233.154 103.319 229.173 101.87C225.176 100.415 223.493 99.5383 219.313 97.8146Z" fill="white"/>
<path fill-rule="evenodd" clip-rule="evenodd" d="M89.2592 102.03C86.2267 102.642 84.0763 106.044 89.7659 105.33C95.4555 104.617 98.0421 103.349 100.413 102.408C102.786 101.468 103.455 98.5651 99.0171 99.5497C94.5787 100.534 92.2907 101.417 89.2592 102.03Z" fill="white"/>
<path fill-rule="evenodd" clip-rule="evenodd" d="M125.257 89.9136C128.054 88.2176 126.378 85.6309 123.776 87.0763C121.174 88.5205 118.174 90.6357 115.98 92.2955C113.787 93.9573 116.241 95.5851 118.935 93.6277C121.631 91.6704 122.514 91.5776 125.257 89.9136Z" fill="white"/>
<path fill-rule="evenodd" clip-rule="evenodd" d="M21.8373 80.4412C20.633 77.7073 18.329 78.3889 19.3765 81.4492C20.4261 84.5094 20.9018 85.8438 22.5605 87.99C24.2192 90.135 25.7509 88.5873 24.4549 86.0678C23.1589 83.5494 22.6128 82.2012 21.8373 80.4412Z" fill="white"/>
<path fill-rule="evenodd" clip-rule="evenodd" d="M37.2498 96.3707C35.3437 95.3893 32.5469 96.648 35.8088 98.7077C39.0728 100.769 41.2306 101.273 43.8493 102.02C46.469 102.766 47.0397 100.445 43.8152 99.4704C40.5928 98.4955 39.0141 97.2784 37.2498 96.3707Z" fill="white"/>
<path fill-rule="evenodd" clip-rule="evenodd" d="M62.0905 104.614C58.9353 104.962 58.2462 107.355 61.6596 107.764C65.955 108.278 68.7518 107.744 71.2404 106.874C73.7278 106.005 73.459 103.935 70.1609 104.375C67.2724 104.761 64.3081 104.37 62.0905 104.614Z" fill="white"/>
<path fill-rule="evenodd" clip-rule="evenodd" d="M140.185 76.2178C137.535 77.8114 136.649 81.7378 141.769 79.1576C146.891 76.5773 148.903 74.5154 150.822 72.8333C152.74 71.1512 152.398 68.1933 148.547 70.6082C144.696 73.0242 142.836 74.6242 140.185 76.2178Z" fill="white"/>
<path fill-rule="evenodd" clip-rule="evenodd" d="M192.704 40.4747C194.12 39.8305 195.18 39.3227 196.092 38.8577C195.333 37.9467 194.551 37.0785 193.719 36.2998C192.955 36.7702 192.104 37.2971 190.975 37.9659C189.069 39.0977 188.395 42.4353 192.704 40.4747Z" fill="#E9F0FB"/>
</svg>
