<svg width="1609" height="1401" viewBox="0 0 1609 1401" fill="none" xmlns="http://www.w3.org/2000/svg">
<path d="M1057.64 1400.18C1019.08 1393 979.882 1290.36 965.026 1255.73C959.969 1247 958.705 1229.52 971.98 1228.28C972.259 1224.83 973.226 1221.47 974.825 1218.4C976.424 1215.32 978.623 1212.59 981.297 1210.36C983.97 1208.12 987.065 1206.43 990.403 1205.39C993.74 1204.34 997.255 1203.95 1000.74 1204.25C1004.02 1204.59 1007.22 1205.44 1010.23 1206.75C1021.11 1215.11 1029.97 1225.77 1036.15 1237.95C1055.11 1266.65 1117.06 1393 1057.64 1400.18Z" fill="#35415F"/>
<path d="M177.847 1399.46C150.489 1388.86 188.468 1317.19 192.974 1296.62C202.63 1270.9 213.573 1244.55 225.16 1215.62C229.666 1204.69 236.747 1183.48 252.518 1189.91C287.278 1153.91 310.13 1196.02 292.75 1230.73C284.06 1264.15 215.182 1411.68 177.847 1399.46Z" fill="#35415F"/>
<path d="M659.868 1390.82C493.195 1392.16 330.805 1337.91 198.225 1236.59C87.8347 1144.46 18.0441 1012.44 3.94921 869.095C-15.0354 674.241 33.059 458.442 177.975 317.537C240.617 255.631 314.089 205.823 394.716 170.603C439.402 144.912 487.58 125.883 537.733 114.116C714.607 77.6202 901.922 132.204 1053.48 224.871C1121.15 262.749 1180.55 313.867 1228.16 375.193C1275.78 436.52 1310.63 506.808 1330.66 581.892C1396.79 783.728 1311.67 1010.63 1174.35 1165.82C1073.56 1276.81 938.912 1351.15 791.494 1377.18V1377.18C748.262 1386.63 704.113 1391.2 659.868 1390.82Z" fill="#F6CE16"/>
<path d="M613.16 1079.2C533.254 1065.63 452.718 1042.6 392.946 984.534C253.896 831.168 293.849 596.703 453.033 474.263C515.949 424.051 594.806 398.281 675.135 401.683C755.518 408.675 832.707 436.514 899.125 482.468C963.804 532.155 1009.82 602.336 1029.68 681.591C1043.8 751.376 1034.6 823.886 1003.49 887.893C972.383 951.901 921.105 1003.83 857.598 1035.66C782.586 1075.23 697.17 1090.45 613.16 1079.2V1079.2Z" fill="#FE8A2D"/>
<path d="M666.79 858.777C650.572 857.877 634.695 853.824 620.078 846.855C605.46 839.886 592.391 830.139 581.625 818.175C570.859 806.212 562.61 792.268 557.354 777.152C552.098 762.035 549.939 746.044 551.001 730.102C551.699 716.145 554.911 702.421 560.487 689.569C572.851 660.35 596.51 637.157 626.259 625.092C656.008 613.027 689.413 613.077 719.125 625.231C747.092 636.412 769.748 657.547 782.58 684.423C796.135 714.414 797.031 748.47 785.072 779.111C773.113 809.752 749.276 834.471 718.797 847.839C702.406 854.948 684.704 858.672 666.79 858.777Z" fill="#DB2C00"/>
<path d="M1339.29 251.075C1310.46 250.514 1214.19 264.225 1251.64 208.38C1291.18 124.239 1368.5 86.7293 1444.93 46.7023C1458.24 40.495 1471.12 33.3595 1483.48 25.3469C1501.42 18.5639 1518.29 10.5895 1536.68 5.06519C1586.79 3.39037 1538.47 70.1703 1529.49 90.0492C1627.05 115.707 1614.49 137.595 1530.6 175.795C1473.16 215.33 1407.8 241.052 1339.29 251.075V251.075Z" fill="#00C6C7"/>
<path d="M643.359 790.878C641.311 791.269 639.193 791.044 637.28 790.233C635.366 789.421 633.745 788.061 632.625 786.325C631.504 784.59 630.936 782.56 630.994 780.497C631.052 778.435 631.733 776.434 632.95 774.754C641.208 738.629 654.944 703.534 666.522 669.068C678.099 634.603 700.4 652.37 719.211 667.51C742.278 640.995 766.537 615.517 791.456 590.92L793.413 590.575C871.951 510.294 956.127 435.608 1045.3 367.079L1044.08 367.295C1144.36 291.029 1250.28 222.328 1360.93 161.775C1367.05 160.697 1374.75 164.328 1372.68 171.178C1370.61 178.028 1363.61 181.257 1357.88 184.512C1253 243.344 1152.08 308.878 1055.78 380.696C969.383 447.086 887.735 519.32 811.422 596.878L804.735 603.295C780.508 627.52 756.695 652.669 734.031 678.614C738.596 683.047 747.191 686.021 746.715 693.338C748.95 694.004 750.962 695.249 752.546 696.942C754.13 698.635 755.229 700.716 755.728 702.972C757.776 714.583 743.973 719.263 736.797 725.766C722.752 736.224 708.621 746.197 694.289 756.457C684.422 763.434 674.512 770.17 664.976 777.588C655.439 785.006 652.336 790.293 643.359 790.878Z" fill="#35415F"/>
</svg>
